<?xml version="1.0" encoding="UTF-8"?>
<svg width="100pt" height="100pt" version="1.1" viewBox="0 0 100 100" xmlns="http://www.w3.org/2000/svg">
 <g>
  <path d="m87.438 9.3438c-0.11719 0.003906-0.23438 0.015625-0.34766 0.03125h-24.59c-0.83594-0.011719-1.6445 0.3125-2.2383 0.89844-0.59766 0.58984-0.93359 1.3906-0.93359 2.2266s0.33594 1.6367 0.93359 2.2266c0.59375 0.58594 1.4023 0.91016 2.2383 0.89844h17.457l-38.414 38.414h-0.003907c-0.60547 0.58203-0.94922 1.3828-0.95703 2.2227-0.007812 0.83984 0.32031 1.6484 0.91406 2.2383 0.59375 0.59375 1.4023 0.92578 2.2383 0.91797 0.83984-0.007813 1.6406-0.35547 2.2227-0.95703l38.414-38.414v17.457l0.003906-0.003906c-0.011719 0.83594 0.3125 1.6445 0.89844 2.2383 0.58594 0.59766 1.3906 0.92969 2.2266 0.92969s1.6367-0.33203 2.2227-0.92969c0.58984-0.59375 0.91406-1.4023 0.90234-2.2383v-24.602c0.125-0.91406-0.15625-1.832-0.76953-2.5156-0.61328-0.68359-1.5-1.0664-2.418-1.0391z"/>
  <path d="m43.75 21.875c-7.8008 0-13.695-0.011719-18.391 0.51953s-8.457 1.6484-11.145 4.3398-3.793 6.4453-4.3203 11.141c-0.52734 4.6953-0.51953 10.586-0.51953 18.379 0 7.793-0.007812 13.688 0.53125 18.383 0.53906 4.6953 1.668 8.4492 4.3633 11.141 2.6953 2.6875 6.4492 3.8047 11.141 4.332 4.6914 0.53125 10.57 0.51953 18.34 0.51953s13.648 0.003906 18.34-0.53125 8.4531-1.6562 11.145-4.3438c2.6953-2.6914 3.8125-6.4453 4.3516-11.141 0.53906-4.6953 0.53906-10.582 0.53906-18.359v-0.003906c0.011719-0.83594-0.3125-1.6406-0.89844-2.2383-0.58984-0.59375-1.3906-0.92969-2.2266-0.92969s-1.6367 0.33594-2.2266 0.92969c-0.58594 0.59766-0.91016 1.4023-0.89844 2.2383 0 7.7734-0.027344 13.57-0.49609 17.652-0.46875 4.082-1.3281 6.1953-2.5625 7.4297s-3.3477 2.0938-7.4297 2.5586-9.875 0.48828-17.641 0.48828-13.559-0.019531-17.641-0.48047c-4.082-0.46094-6.1953-1.3164-7.4297-2.5469-1.2344-1.2305-2.0977-3.3438-2.5625-7.4297-0.46875-4.0859-0.49609-9.8828-0.49609-17.668 0-7.7891 0.015624-13.59 0.47656-17.676 0.45703-4.0859 1.3164-6.1953 2.5391-7.4219 1.2227-1.2266 3.3359-2.082 7.4219-2.5469 4.0859-0.46094 9.8906-0.48047 17.688-0.48047l0.007812-0.003906c0.83594 0.011719 1.6445-0.3125 2.2383-0.89844 0.59766-0.58984 0.92969-1.3906 0.92969-2.2266s-0.33203-1.6367-0.92969-2.2266c-0.59375-0.58594-1.4023-0.91016-2.2383-0.89844z"/>
 </g>
</svg>
