<svg width="510" height="131" viewBox="0 0 510 131" fill="none" xmlns="http://www.w3.org/2000/svg">
<path d="M30.1377 30.44C32.0587 28.4405 31.6023 31.3455 32.8817 30.0751C32.8817 31.3456 31.6023 31.0737 32.8817 32.4362C32.4218 34.7961 30.4127 33.5253 33.0641 35.3406C33.8873 35.974 35.8964 35.6137 36.9942 36.3387C38.181 37.5207 39.1907 38.2464 41.1972 38.6888C44.9461 41.5053 41.3816 32.8827 47.8713 36.9663C49.2434 37.6033 50.5237 37.4187 52.1703 38.0557C54.729 38.7845 56.1936 36.8779 58.7525 38.1483C62.1347 37.1504 60.3988 46.7717 58.0216 39.7823C56.9249 39.9631 59.3929 42.2343 59.12 42.4158C59.9433 44.0507 60.581 46.0474 61.9531 47.3178C60.6741 47.9549 62.8696 49.2246 63.3258 49.6775C63.782 52.7669 65.9772 54.9433 67.164 58.1212C67.0715 56.7633 67.5265 58.665 67.8935 58.2139C68.0788 58.2139 68.1684 58.3057 68.261 58.4862C68.9916 59.0311 72.2837 61.2066 71.1874 62.1164C70.3677 62.5729 71.0987 62.3008 71.5549 62.4813C72.3746 64.2968 73.6576 63.2077 75.1189 63.2997C77.0367 63.2106 81.9713 60.3976 80.785 63.6633C81.0594 63.7552 80.8782 63.4828 81.1526 63.6633C78.7749 73.1968 61.7684 78.6446 67.984 88.458C68.8999 97.3548 67.1634 94.6299 61.037 100.168C61.037 102.076 62.4096 102.986 61.4937 104.982C62.7717 105.98 57.3814 106.706 58.3863 108.248C57.6516 112.697 52.4404 117.691 48.6021 118.416C46.4068 117.238 43.8475 119.867 42.2009 118.688C41.1034 117.599 41.6519 118.96 41.2849 118.323C41.741 117.142 40.0062 116.869 41.2849 116.143C38.5444 110.697 37.4472 104.886 35.0702 99.4398C34.1675 98.4149 33.8921 97.2654 33.976 96.0917C33.9374 95.9928 33.9211 95.8928 33.9746 95.8898C33.9804 95.8927 33.986 95.8966 33.9913 95.8995C34.097 94.8827 34.4621 93.8518 34.9143 92.8707H62.8956V87.6466H43.1977C47.9125 84.4352 51.6925 81.4952 54.537 78.8255C57.4204 76.117 59.5048 73.5437 60.7906 71.1061C62.1155 68.6298 62.7787 66.1147 62.7787 63.561C62.7786 61.2009 62.2129 59.131 61.083 57.3512C59.9919 55.5327 58.4134 54.1395 56.3482 53.1722C54.2831 52.1664 51.8474 51.6627 49.0421 51.6627C46.2367 51.6627 43.723 52.205 41.5021 53.2884C39.3202 54.3331 37.5672 55.9007 36.2424 57.9899C34.9566 60.0405 34.2153 62.5171 34.0205 65.4189H40.2755C40.3924 62.7105 41.2493 60.6201 42.8469 59.1497C44.4444 57.641 46.4706 56.8869 48.9251 56.8867C51.263 56.8867 53.0757 57.5247 54.3616 58.8014C55.6864 60.0782 56.3482 61.7619 56.3482 63.8513C56.3482 65.7471 55.6083 67.8557 54.1277 70.1772C52.647 72.46 50.2701 75.0914 46.997 78.0707C44.0598 80.7094 40.2739 83.767 35.6424 87.2471C35.5801 86.9233 35.6464 86.6269 35.9863 86.3665C35.8045 82.5549 28.4909 77.1963 31.7805 76.0178C31.4171 76.0178 31.0499 75.021 31.5981 75.4731C31.7798 74.4754 30.6833 75.7457 31.7805 74.023C32.0549 73.1135 31.5946 72.0222 31.6872 71.5692C31.5065 71.3894 31.6873 71.3895 31.5062 71.3895C31.05 71.8425 30.686 70.8444 30.0445 70.4799C26.2029 72.8399 27.3002 68.3922 24.1931 68.5722C20.2622 68.6607 18.6186 71.1134 15.144 70.0237C10.9387 71.9312 7.55553 68.7529 4.81129 67.1179C5.17837 66.9374 5.45338 67.118 4.90456 66.8456C4.81549 66.3927 4.62964 66.3928 4.44793 66.0286C5.54524 65.9366 2.44041 63.3047 2.34574 62.8504C2.25294 63.122 1.88643 62.8502 1.97821 62.5781C1.79735 62.7607 1.88577 62.398 1.97821 62.397C2.25263 62.213 1.43014 62.5769 1.79723 62.3044C1.88872 62.2119 1.70507 61.9408 2.07149 61.9408C2.39772 61.6963 1.18082 62.4007 1.32389 62.0238C1.08092 62.2616 0.659597 61.8874 0.97306 61.5759C0.242679 61.9397 -0.123598 60.1251 0.517819 60.0331C-0.761605 58.2176 0.698636 57.7643 0.97306 55.7684C0.79121 47.7809 -0.213176 51.1387 3.62515 44.2378C12.4027 38.3349 6.18399 37.9738 11.4868 34.796C12.9479 34.7075 12.9482 30.8052 14.0456 31.9828C14.5053 33.3453 16.5165 32.1635 16.791 32.7085C20.4478 31.8945 26.2068 29.442 30.1377 30.44Z" fill="white"/>
<path d="M77.952 92.0813C78.5934 88.7242 79.5053 92.4424 80.0542 94.0775C78.1332 95.1638 77.6772 105.968 73.9244 106.881C71.2765 108.332 70.8163 103.977 70.909 102.341C73.6531 100.346 70.546 95.9887 73.6529 95.4433C73.9841 95.0306 74.5468 94.9181 74.8516 95.1074C74.5958 94.7728 76.0058 93.9493 75.6632 94.6263C75.9377 94.6263 75.8488 93.8972 76.305 93.7167C76.1349 95.0777 76.7629 92.7799 76.9204 93.1485C76.6118 91.868 77.1366 92.8867 77.4035 92.4463C77.6776 92.1744 77.7703 92.3537 77.952 92.0813Z" fill="white"/>
<path d="M178.05 44.741H174.057L180.142 27.2393H184.944L191.02 44.741H187.026L182.612 31.2387H182.474L178.05 44.741ZM177.801 37.8616H187.233V40.7501H177.801V37.8616Z" fill="white"/>
<path d="M167.582 33.3666H163.813C163.744 32.8823 163.603 32.4522 163.391 32.0762C163.179 31.6945 162.906 31.3697 162.573 31.102C162.241 30.8342 161.856 30.6291 161.42 30.4867C160.99 30.3442 160.522 30.273 160.017 30.273C159.105 30.273 158.31 30.4981 157.633 30.9481C156.956 31.3925 156.431 32.042 156.058 32.8966C155.686 33.7455 155.499 34.7766 155.499 35.9901C155.499 37.2378 155.686 38.2861 156.058 39.135C156.437 39.9839 156.965 40.6248 157.642 41.0578C158.319 41.4908 159.102 41.7072 159.991 41.7072C160.491 41.7072 160.952 41.6417 161.377 41.5107C161.807 41.3797 162.189 41.1888 162.522 40.9381C162.854 40.6818 163.13 40.3713 163.348 40.0066C163.572 39.642 163.727 39.2261 163.813 38.759L167.582 38.7761C167.485 39.5794 167.241 40.3542 166.851 41.1005C166.466 41.8411 165.947 42.5049 165.293 43.0917C164.645 43.6728 163.87 44.1342 162.969 44.4761C162.074 44.8122 161.062 44.9803 159.931 44.9803C158.359 44.9803 156.954 44.627 155.714 43.9206C154.481 43.2141 153.505 42.1915 152.788 40.8527C152.077 39.5138 151.721 37.893 151.721 35.9901C151.721 34.0816 152.082 32.4579 152.805 31.1191C153.528 29.7802 154.509 28.7604 155.749 28.0597C156.988 27.3532 158.382 27 159.931 27C160.952 27 161.899 27.1424 162.771 27.4273C163.649 27.7121 164.427 28.128 165.104 28.675C165.781 29.2162 166.331 29.8799 166.756 30.6661C167.186 31.4523 167.462 32.3525 167.582 33.3666Z" fill="white"/>
<path d="M143.875 27.2393V44.741H140.149V27.2393H143.875Z" fill="white"/>
<path d="M119.155 44.741V27.2393H126.109C127.44 27.2393 128.576 27.4757 129.517 27.9486C130.464 28.4157 131.184 29.0795 131.677 29.9397C132.177 30.7943 132.426 31.7999 132.426 32.9564C132.426 34.1186 132.174 35.1185 131.669 35.9559C131.164 36.7877 130.432 37.4258 129.474 37.8702C128.522 38.3146 127.369 38.5368 126.015 38.5368H121.359V35.5628H125.412C126.124 35.5628 126.715 35.466 127.185 35.2723C127.655 35.0786 128.005 34.788 128.235 34.4006C128.47 34.0132 128.588 33.5318 128.588 32.9564C128.588 32.3753 128.47 31.8853 128.235 31.4865C128.005 31.0877 127.653 30.7858 127.176 30.5807C126.706 30.3699 126.112 30.2645 125.395 30.2645H122.882V44.741H119.155ZM128.674 36.7763L133.054 44.741H128.941L124.655 36.7763H128.674Z" fill="white"/>
<path d="M99.8896 44.741V27.2393H111.56V30.2901H103.616V34.4604H110.785V37.5113H103.616V44.741H99.8896Z" fill="white"/>
<path d="M79.7093 44.741H75.716L81.8006 27.2393H86.6028L92.6788 44.741H88.6855L84.2706 31.2387H84.1329L79.7093 44.741ZM79.4597 37.8616H88.8921V40.7501H79.4597V37.8616Z" fill="white"/>
<path d="M179.92 93.5091C177.193 93.5091 174.816 93.0255 172.789 92.0581C170.763 91.0908 169.146 89.7173 167.938 87.9374C166.769 86.1575 166.126 84.0875 166.009 81.7273H172.205C172.4 83.7006 173.179 85.287 174.543 86.4864C175.907 87.6859 177.719 88.2856 179.979 88.2856C181.732 88.2856 183.252 87.8987 184.538 87.1249C185.823 86.351 186.817 85.2483 187.519 83.8166C188.22 82.385 188.571 80.7212 188.571 78.8253C188.571 76.349 187.83 74.3563 186.35 72.8473C184.869 71.2996 182.921 70.5258 180.505 70.5258C178.829 70.5258 177.251 70.9514 175.77 71.8026C174.29 72.6152 173.101 73.6792 172.205 74.9948H166.477L169.925 52.3596H192.954V57.5831H174.952L173.082 69.307C174.212 68.0688 175.575 67.0821 177.173 66.347C178.771 65.6118 180.407 65.2442 182.083 65.2442C184.616 65.2442 186.856 65.8246 188.804 66.9854C190.753 68.1075 192.272 69.6745 193.363 71.6865C194.454 73.6599 195 76.0008 195 78.7092C195 81.7272 194.377 84.3583 193.13 86.6025C191.883 88.808 190.129 90.5104 187.869 91.7099C185.609 92.9094 182.96 93.5091 179.92 93.5091Z" fill="white"/>
<path d="M136.587 93.5671C133.898 93.5671 131.424 93.0255 129.163 91.9421C126.903 90.8587 125.092 89.2916 123.728 87.2409C122.403 85.1902 121.74 82.6752 121.74 79.6959H127.936C127.975 81.3984 128.365 82.9074 129.105 84.2229C129.845 85.4998 130.859 86.4864 132.144 87.1829C133.469 87.8793 134.95 88.2276 136.587 88.2276C139.08 88.2276 141.087 87.5892 142.607 86.3123C144.126 85.0355 144.886 83.391 144.886 81.379C144.886 79.7926 144.438 78.4964 143.542 77.4904C142.685 76.4457 141.516 75.6719 140.035 75.1689C138.593 74.6659 136.976 74.4144 135.184 74.4144H133.021V69.3069H135.359C136.957 69.3069 138.321 69.0168 139.451 68.4364C140.62 67.8173 141.516 67.0047 142.139 65.9987C142.763 64.9927 143.074 63.9093 143.074 62.7486C143.074 60.9687 142.451 59.5564 141.204 58.5117C139.996 57.4284 138.418 56.8867 136.47 56.8867C134.093 56.8867 132.164 57.5831 130.683 58.9761C129.202 60.3303 128.404 62.3036 128.287 64.896H122.091C122.208 61.9941 122.929 59.5564 124.254 57.5831C125.618 55.6098 127.371 54.1395 129.514 53.1722C131.657 52.1662 133.995 51.6632 136.528 51.6632C139.139 51.6632 141.399 52.1081 143.308 52.9981C145.256 53.8493 146.776 55.0681 147.867 56.6545C148.958 58.2022 149.504 60.0401 149.504 62.1682C149.504 63.5998 149.192 64.954 148.569 66.2309C147.945 67.5077 147.088 68.6105 145.997 69.5391C144.945 70.429 143.717 71.0675 142.315 71.4544C144.068 71.7252 145.607 72.325 146.932 73.2536C148.296 74.1435 149.367 75.3043 150.147 76.7359C150.926 78.1288 151.316 79.6959 151.316 81.437C151.316 83.7973 150.712 85.906 149.504 87.7633C148.296 89.5818 146.581 91.0134 144.36 92.0581C142.178 93.0641 139.587 93.5671 136.587 93.5671Z" fill="white"/>
<path d="M92.3762 93.5671C89.0641 93.5671 86.2391 92.7159 83.9011 91.0134C81.5631 89.2723 79.7707 86.8347 78.5238 83.7006C77.2769 80.5278 76.6534 76.8326 76.6534 72.6152C76.6534 68.3203 77.2769 64.6058 78.5238 61.4717C79.7707 58.3376 81.5631 55.9193 83.9011 54.2169C86.2391 52.5144 89.0641 51.6632 92.3762 51.6632C95.7273 51.6632 98.5523 52.5144 100.851 54.2169C103.189 55.9193 104.982 58.3376 106.229 61.4717C107.476 64.5671 108.099 68.2816 108.099 72.6152C108.099 76.8713 107.476 80.5665 106.229 83.7006C104.982 86.8347 103.189 89.2723 100.851 91.0134C98.5523 92.7159 95.7273 93.5671 92.3762 93.5671ZM92.3762 88.3437C95.4545 88.3437 97.773 86.9701 99.3316 84.2229C100.89 81.4371 101.67 77.5678 101.67 72.6152C101.67 67.5851 100.89 63.7159 99.3316 61.0074C97.773 58.2602 95.4545 56.8867 92.3762 56.8867C89.3368 56.8867 87.0379 58.2602 85.4792 61.0074C83.9206 63.7159 83.1413 67.5851 83.1413 72.6152C83.1413 77.5678 83.9206 81.4371 85.4792 84.2229C87.0379 86.9701 89.3368 88.3437 92.3762 88.3437Z" fill="white"/>
<g clip-path="url(#clip0_111_48)">
<path d="M303.329 91.6345C303.329 91.6345 302.309 80.8242 301.854 70.488C301.834 70.0039 300.267 73.4256 288.127 75.0688C288.127 75.0688 288.127 73.6567 289.264 73.1862C290.398 72.7195 291.646 74.1316 296.182 71.5467C300.718 68.9571 301.4 66.49 301.4 66.49C301.4 66.49 299.84 53.6866 300.152 51.0971C300.718 46.3957 302.419 43.6966 305.372 41.1116C308.318 38.5266 312.203 36.7446 315.692 36.2906C319.325 35.8238 320.686 36.0595 320.686 36.0595C320.686 36.0595 322.215 37.2241 322.163 37.7036C322.129 37.9548 320.264 37.4634 316.483 38.1439C315.069 38.4006 311.04 39.5816 308.658 42.2881C306.279 44.9863 304.716 48.4326 304.797 52.6782C304.881 56.8388 305.349 61.6726 305.349 61.6726C305.349 61.6726 308.64 57.0115 310.474 55.9144C312.093 54.9517 312.742 55.212 312.742 55.212C312.742 55.212 316.033 56.035 316.033 56.3839C316.033 56.7338 313.898 56.7539 311.269 58.8511C309.551 60.2212 306.394 64.2558 306.053 65.1975C305.713 66.1356 306.029 67.6016 306.144 72.071C306.256 76.5339 307.373 86.0855 307.5 87.7534C307.618 89.3126 307.98 91.1614 307.867 91.514C307.755 91.8738 306.164 92.3369 303.329 91.6345Z" fill="white"/>
<path d="M326.213 83.0089C326.1 80.8757 326.788 74.9553 326.906 70.0945C327.017 65.2273 326.594 58.3319 325.756 54.9142C324.786 50.9878 323.209 48.9357 321.608 47.7157C320.115 46.5795 318.35 45.7096 315.667 45.5659C313.35 45.4378 311.937 45.9086 309.859 47.0955C308.014 48.1478 306.407 49.8175 306.407 50.1751L310.051 50.4662C310.051 50.4662 311.606 48.873 313.43 48.5164C315.361 48.1395 316.979 48.4878 318.35 49.8986C319.146 50.7132 319.691 51.5305 320.851 54.7999C321.429 56.4199 321.393 57.5266 321.46 57.874C321.485 57.9928 320.249 57.768 318.77 58.0269C315.213 58.6323 311.359 61.3212 309.977 65.7055C308.593 70.0945 309.065 74.0292 309.977 76.8452C310.664 78.972 312.51 81.2314 315.276 82.0626C318.037 82.8928 321.838 82.4183 321.838 82.4183C321.838 82.4183 321.955 83.6014 323.218 84.674C324.486 85.7383 327.595 87.1583 328.748 87.3951C329.898 87.6375 330.359 87.514 330.359 87.514C330.359 87.514 326.328 85.1449 326.213 83.0089ZM321.955 80.0492C321.955 80.0492 320.811 81.4894 317.493 80.3588C314.567 79.3488 313.091 74.4761 313.547 70.5663C314.005 66.6519 315.158 63.811 317.114 61.91C319.073 60.0155 321.955 58.9465 322.066 62.3864C322.184 65.8244 321.955 80.0492 321.955 80.0492Z" fill="white"/>
<path d="M294.891 78.0762C293.201 77.074 287.402 76.4345 283.829 76.4345C280.259 76.4345 279.996 75.9566 279.859 75.4806C279.581 74.5104 281.421 73.7228 282.607 73.2943C284.575 72.5963 286.508 72.2976 290.514 71.0285C294.139 69.871 295.641 66.349 296.04 62.0997C296.628 55.8268 294.186 52.8091 294.311 52.4592C295.35 49.6379 294.891 46.2337 294.199 45.2872C293.508 44.3498 288.858 41.5669 289.59 42.5838C290.855 44.3498 290.255 48.1834 289.816 47.9906C285.098 45.8765 280.777 47.7714 279.668 48.3478C277.45 49.4963 273.115 52.6949 273.003 60.2149C272.833 71.0285 280.487 72.4374 280.487 72.4374C280.487 72.4374 275.995 73.3784 275.883 76.4345C275.751 79.8423 282.562 78.7825 283.944 78.6646C285.327 78.5477 289.683 78.089 291.201 79.9556C292.924 82.0788 289.013 83.2501 287.862 83.4821C286.711 83.7224 278.993 85.3615 277.956 86.1846C276.919 87.0042 277.61 88.1818 277.61 88.1818C277.61 88.1818 285.211 86.4258 287.056 85.9508C288.898 85.4839 292.495 84.8151 294.773 82.8983C297.047 80.9825 296.583 79.0904 294.891 78.0762ZM279.453 66.211C279.453 66.211 276.017 57.7317 278.649 52.6949C281.929 46.4101 287.245 49.869 288.102 50.7699C289.269 51.9932 291.894 55.3983 291.202 61.6246C290.978 63.6465 290.488 70.0464 286.134 70.5635C281.038 71.1555 279.453 66.211 279.453 66.211Z" fill="white"/>
<path d="M352.153 79.2727L361.497 52.0975L370.798 79.2727H373.112L383.27 48.9818H381.127L371.912 76.2869L362.568 48.9818H360.468L351.081 76.2436L341.952 48.9818H339.637L349.838 79.2727H352.153ZM402.944 79.4891C405.887 79.4891 408.545 78.8256 410.916 77.4986C413.288 76.1715 415.152 74.3396 416.51 72.0029C417.867 69.6662 418.546 67.041 418.546 64.1273C418.546 61.2136 417.867 58.5884 416.51 56.2516C415.152 53.9149 413.288 52.083 410.916 50.756C408.545 49.429 405.887 48.7655 402.944 48.7655C400.001 48.7655 397.343 49.4362 394.972 50.7776C392.6 52.1191 390.736 53.9582 389.378 56.2949C388.021 58.6316 387.342 61.2424 387.342 64.1273C387.342 67.0121 388.021 69.6229 389.378 71.9596C390.736 74.2964 392.6 76.1355 394.972 77.4769C397.343 78.8184 400.001 79.4891 402.944 79.4891ZM402.944 77.4553C400.429 77.4553 398.151 76.8783 396.107 75.7244C394.064 74.5704 392.457 72.9765 391.286 70.9427C390.114 68.9089 389.528 66.6371 389.528 64.1273C389.528 61.6175 390.114 59.3456 391.286 57.3118C392.457 55.278 394.064 53.6841 396.107 52.5302C398.151 51.3762 400.429 50.7993 402.944 50.7993C405.459 50.7993 407.73 51.3762 409.759 52.5302C411.788 53.6841 413.388 55.278 414.559 57.3118C415.731 59.3456 416.317 61.6175 416.317 64.1273C416.317 66.6371 415.731 68.9089 414.559 70.9427C413.388 72.9765 411.788 74.5704 409.759 75.7244C407.73 76.8783 405.459 77.4553 402.944 77.4553ZM428.318 79.2727V69.3633H436.89C437.776 69.3633 438.748 69.2912 439.805 69.1469L446.963 79.2727H449.449L441.948 68.6709C444.205 68.0074 445.941 66.8607 447.156 65.2307C448.37 63.6008 448.977 61.5886 448.977 59.1942C448.977 55.992 447.906 53.4894 445.763 51.6864C443.62 49.8833 440.662 48.9818 436.89 48.9818H426.132V79.2727H428.318ZM436.89 67.416H428.318V50.9724H436.89C440.091 50.9724 442.534 51.6864 444.22 53.1144C445.906 54.5424 446.749 56.569 446.749 59.1942C446.749 61.8194 445.906 63.846 444.22 65.274C442.534 66.702 440.091 67.416 436.89 67.416ZM476.452 79.2727V77.2822H459.179V48.9818H456.993V79.2727H476.452ZM493.939 79.2727C497.054 79.2727 499.819 78.6236 502.233 77.3255C504.648 76.0273 506.526 74.2315 507.869 71.938C509.212 69.6446 509.884 67.041 509.884 64.1273C509.884 61.2136 509.212 58.61 507.869 56.3165C506.526 54.0231 504.648 52.2273 502.233 50.9291C499.819 49.6309 497.054 48.9818 493.939 48.9818H482.067V79.2727H493.939ZM493.768 77.2822H484.253V50.9724H493.768C496.54 50.9724 498.983 51.5277 501.097 52.6384C503.212 53.749 504.84 55.2996 505.983 57.2902C507.126 59.2807 507.698 61.5598 507.698 64.1273C507.698 66.6948 507.126 68.9738 505.983 70.9644C504.84 72.9549 503.212 74.5055 501.097 75.6162C498.983 76.7269 496.54 77.2822 493.768 77.2822Z" fill="white"/>
</g>
<line x1="263.465" y1="0.182605" x2="212.465" y2="130.183" stroke="white"/>
<defs>
<clipPath id="clip0_111_48">
<rect width="237" height="56" fill="white" transform="translate(273 36)"/>
</clipPath>
</defs>
</svg>
