<svg width="162" height="162" viewBox="0 0 162 162" fill="none" xmlns="http://www.w3.org/2000/svg">
<path d="M162 81C162 125.735 125.735 162 81 162C36.2649 162 0 125.735 0 81C0 36.2649 36.2649 0 81 0C125.735 0 162 36.2649 162 81Z" fill="url(#paint0_linear_230_96)"/>
<path d="M50.6667 40C37.4167 40 26.6667 50.75 26.6667 64V101.333C26.6667 114.583 37.4167 125.333 50.6667 125.333H114.667C127.917 125.333 138.667 114.583 138.667 101.333V64C138.667 50.75 127.917 40 114.667 40H50.6667ZM50.6667 45.3333H114.667C125.052 45.3333 133.333 53.6145 133.333 64V101.333C133.333 111.719 125.052 120 114.667 120H50.6667C40.2812 120 32 111.719 32 101.333V64C32 53.6145 40.2812 45.3333 50.6667 45.3333ZM69.1667 61.1253C67.8542 61.193 66.7136 62.5524 66.75 64.0003V101.334C66.724 102.339 67.2344 103.334 68.0208 103.839C68.8125 104.339 69.849 104.323 70.625 103.792L99.9583 85.1253C101.552 84.1669 101.552 81.1669 99.9583 80.2086L70.625 61.5419C70.1927 61.245 69.6771 61.0993 69.1667 61.1253ZM71.8749 68.8753L93.5416 82.6673L71.8749 96.4167V68.8753Z" fill="white"/>
<defs>
<linearGradient id="paint0_linear_230_96" x1="81" y1="0" x2="81" y2="162" gradientUnits="userSpaceOnUse">
<stop stop-color="#0099CC"/>
<stop offset="1" stop-color="#248EB1"/>
</linearGradient>
</defs>
</svg>
