<svg width="162" height="162" viewBox="0 0 162 162" fill="none" xmlns="http://www.w3.org/2000/svg">
<path d="M162 81C162 125.735 125.735 162 81 162C36.2649 162 0 125.735 0 81C0 36.2649 36.2649 0 81 0C125.735 0 162 36.2649 162 81Z" fill="url(#paint0_linear_230_92)"/>
<path d="M123.907 115.896L114.776 106.766C110.87 102.859 108.724 97.672 108.724 92.1511V71.6817C108.724 71.4213 108.672 71.1661 108.578 70.9265L93.8131 34.1039C92.5318 30.9008 89.1204 29.0153 85.7194 29.6091C83.5423 29.9893 81.761 31.3487 80.7194 33.1768C79.6725 31.3487 77.8964 29.9893 75.7194 29.6091C72.3183 29.0101 68.912 30.9007 67.6256 34.1039L52.8603 70.9265C52.7665 71.1661 52.7145 71.4265 52.7145 71.6817V92.1511C52.7145 97.6719 50.5634 102.865 46.6623 106.766L37.4279 116C36.6363 116.792 36.6363 118.078 37.4279 118.87L55.7919 137.234C56.1721 137.614 56.6878 137.828 57.2294 137.828C57.7658 137.828 58.2867 137.614 58.6669 137.234L78.5735 117.327C79.4173 116.483 80.1257 115.546 80.7246 114.551C81.3236 115.546 82.0319 116.483 82.8757 117.327L102.678 137.13C103.074 137.526 103.595 137.724 104.116 137.724C104.637 137.724 105.157 137.526 105.553 137.13L123.917 118.766C124.709 117.974 124.709 116.688 123.917 115.896L123.907 115.896ZM80.7187 43.6307L84.8645 67.98C83.2187 68.454 81.7968 69.4227 80.7187 70.6936C79.6406 69.4228 78.2187 68.454 76.5728 67.98L80.7187 43.6307ZM75.6979 114.459L57.2245 132.932L41.7299 117.437L49.5268 109.635C54.1987 104.963 56.7716 98.7549 56.7716 92.1459V72.0725L71.3916 35.6139C71.9749 34.1608 73.4645 33.3379 75.0167 33.6087C76.7459 33.9107 77.9385 35.7545 77.6156 37.6347L72.4749 67.832C68.6104 68.6393 65.6937 72.0716 65.6937 76.1757V92.5037C65.6937 93.6235 66.6 94.5349 67.7249 94.5349C68.8447 94.5349 69.7561 93.6287 69.7561 92.5037V76.1757C69.7561 73.7173 71.7561 71.7121 74.2197 71.7121C76.6781 71.7121 78.6833 73.7121 78.6833 76.1757V107.244C78.6833 109.968 77.6208 112.535 75.6937 114.463L75.6979 114.459ZM104.105 132.823L85.7405 114.459C83.8135 112.532 82.7509 109.969 82.7509 107.24V76.1719C82.7509 73.7135 84.7509 71.7083 87.2145 71.7083C89.6781 71.7083 91.6781 73.7083 91.6781 76.1719V92.4999C91.6781 93.6197 92.5844 94.5311 93.7093 94.5311C94.8291 94.5311 95.7405 93.6248 95.7405 92.4999V76.1719C95.7405 72.0677 92.8291 68.6355 88.9593 67.8281L83.8187 37.6308C83.4957 35.7505 84.6885 33.9068 86.4176 33.6048C86.6155 33.5683 86.8134 33.5527 87.0061 33.5527C88.3343 33.5527 89.5321 34.3392 90.0425 35.61L104.663 72.0687V92.1421C104.663 98.7462 107.235 104.96 111.907 109.631L119.6 117.324L104.105 132.819L104.105 132.823Z" fill="white"/>
<defs>
<linearGradient id="paint0_linear_230_92" x1="81" y1="0" x2="81" y2="162" gradientUnits="userSpaceOnUse">
<stop stop-color="#0099CC"/>
<stop offset="1" stop-color="#248EB1"/>
</linearGradient>
</defs>
</svg>
