<svg width="162" height="162" viewBox="0 0 162 162" fill="none" xmlns="http://www.w3.org/2000/svg">
<path d="M162 81C162 125.735 125.735 162 81 162C36.2649 162 0 125.735 0 81C0 36.2649 36.2649 0 81 0C125.735 0 162 36.2649 162 81Z" fill="url(#paint0_linear_230_94)"/>
<path d="M128.065 54.1043H119.866V47.8544C119.866 46.9244 119.171 46.1243 118.199 45.8594C117.781 45.7243 107.774 43.9995 97.6259 47.1894C89.5628 49.7143 83.8672 52.6445 81.4992 53.9745C79.1373 52.6445 73.4361 49.7196 65.3724 47.1894C55.0886 43.9995 45.2174 45.7243 44.799 45.8594C43.8271 45.9945 43.1321 46.9244 43.1321 47.8544V54.1043H34.9333C33.8203 54.1043 32.8483 55.0343 32.8483 56.0993V119.675C32.8483 120.74 33.8203 121.67 34.9333 121.67H128.063C129.176 121.67 130.148 120.74 130.148 119.675V56.0993C130.148 55.0395 129.176 54.1043 128.063 54.1043H128.065ZM125.98 117.68H87.3366C90.3935 116.215 94.4278 114.355 98.7335 113.29C108.187 110.895 117.357 112.095 117.498 112.095C118.052 112.23 118.747 111.96 119.165 111.565C119.583 111.165 119.86 110.635 119.86 110.1L119.866 58.094H125.98L125.98 117.68ZM37.02 117.68V58.0943H43.1338V110.1C43.1338 110.63 43.4107 111.165 43.8288 111.565C44.2469 111.965 44.9419 112.095 45.4957 112.095C45.6368 112.095 54.8076 110.9 64.2607 113.29C68.5719 114.355 72.6007 116.215 75.6575 117.68L37.02 117.68ZM47.3038 54.1043V49.5845C50.3607 49.1844 57.3107 48.9195 64.1256 51.0496C67.3237 51.9796 69.9624 53.0446 72.3243 54.1097C73.9912 54.7747 75.5224 55.5748 76.6356 56.1047C77.7486 56.6346 78.7206 57.1697 79.4156 57.5698V115.155C76.2174 113.425 70.9343 110.9 65.3738 109.435C60.0907 108.105 55.09 107.705 51.332 107.705C49.8008 107.705 48.4108 107.705 47.4389 107.84L47.4443 54.1051L47.3038 54.1043ZM90.6759 54.1043C93.0378 53.0393 95.8178 51.9742 98.8747 51.0443C105.684 48.9141 112.633 49.3142 115.697 49.5791V107.829C112.08 107.564 104.995 107.429 97.6265 109.424C92.0665 110.889 86.7834 113.414 83.5847 115.144V57.5645C84.1386 57.1644 85.1159 56.7644 86.3647 56.0993C87.4778 55.4343 89.0035 54.7693 90.6759 54.1043Z" fill="white"/>
<path d="M92.4782 72.3307C92.7551 72.3307 93.1732 72.1956 93.4501 72.0657C99.0101 69.4057 100.954 68.8758 106.237 68.3406C107.35 68.2056 108.181 67.2756 108.045 66.2105C107.904 65.1455 106.932 64.3506 105.819 64.4804C99.982 65.0104 97.4789 65.6754 91.6423 68.6056C90.6704 69.1355 90.2523 70.3356 90.6704 71.2656C90.9527 71.9306 91.6474 72.3307 92.4782 72.3307Z" fill="white"/>
<path d="M92.4782 84.9657C92.7551 84.9657 93.1732 84.9657 93.4501 84.7007C99.0101 82.0407 100.954 81.5108 106.237 80.9756C107.35 80.8406 108.181 79.9106 108.045 78.8455C107.904 77.7805 106.932 76.9856 105.819 77.1154C99.982 77.6454 97.4789 78.3104 91.6423 81.2406C90.6704 81.7705 90.2523 82.9706 90.6704 83.9006C90.9527 84.5656 91.6474 84.9657 92.4782 84.9657Z" fill="white"/>
<path d="M92.4782 97.7297C92.7551 97.7297 93.1732 97.7297 93.4501 97.4647C99.0101 94.8047 100.954 94.2748 106.237 93.7396C107.35 93.6046 108.181 92.6746 108.045 91.6095C107.904 90.5445 106.932 89.7496 105.819 89.8795C99.982 90.4094 97.4789 91.0744 91.6423 94.0046C90.6704 94.5345 90.2523 95.7346 90.6704 96.6646C90.9527 97.3296 91.6474 97.7297 92.4782 97.7297Z" fill="white"/>
<path d="M56.7566 68.4697C62.0397 68.9996 63.9835 69.5347 69.5435 72.1947C69.8204 72.3298 70.0973 72.4597 70.5154 72.4597C71.3516 72.4597 72.0466 72.0597 72.3235 71.3947C72.8774 70.4647 72.4647 69.2645 71.3516 68.7347C65.3735 65.9395 62.8704 65.1447 57.175 64.6095C56.0619 64.4745 54.9488 65.2745 54.9488 66.3396C54.813 67.4046 55.6435 68.3397 56.7566 68.4697Z" fill="white"/>
<path d="M56.7566 81.1047C62.0397 81.6346 63.9835 82.1697 69.5435 84.8297C69.8204 84.9648 70.0973 85.0947 70.5154 85.0947C71.3516 85.0947 72.0466 84.6947 72.3235 84.0297C72.8774 83.0997 72.4647 81.8995 71.3516 81.3697C65.3735 78.5745 62.8704 77.7797 57.175 77.2445C56.0619 77.1095 54.9488 77.9095 54.9488 78.9746C54.813 80.0396 55.6435 81.1047 56.7566 81.1047Z" fill="white"/>
<path d="M56.7566 93.8753C62.0397 94.4052 63.9835 94.9404 69.5435 97.6004C69.8204 97.7355 70.0973 97.8654 70.5154 97.8654C71.3516 97.8654 72.0466 97.4653 72.3235 96.8003C72.8774 95.8704 72.4647 94.6702 71.3516 94.1403C65.3735 91.3452 62.8704 90.5504 57.175 90.0152C56.0619 89.8801 54.9488 90.6802 54.9488 91.7452C54.813 92.6752 55.6435 93.7402 56.7566 93.8753Z" fill="white"/>
<defs>
<linearGradient id="paint0_linear_230_94" x1="81" y1="0" x2="81" y2="162" gradientUnits="userSpaceOnUse">
<stop stop-color="#0099CC"/>
<stop offset="1" stop-color="#248EB1"/>
</linearGradient>
</defs>
</svg>
