<svg width="452" height="335" viewBox="0 0 452 335" fill="none" xmlns="http://www.w3.org/2000/svg">
<path d="M232 180.217H230L228 180.742L227 181.267L226.5 182.318L226 184.944V186.52H230L231 185.995L232 184.944H233.5L235 183.894V182.318L234 180.217L232.5 179.692L232 180.217Z" fill="#FF0000"/>
<path d="M313.373 228.181C313.174 228.181 312.682 228.265 312.496 228.348C310.491 229.116 309.84 231.446 309.375 233.162C309.242 233.636 309.043 234.362 308.99 234.474C308.777 234.697 308.233 235.06 307.768 235.381C306.48 236.26 305.032 237.25 304.448 238.715C303.943 239.985 303.173 241.91 301.765 242.427C300.57 242.873 299.693 243.668 298.923 244.38C297.993 245.231 297.17 245.971 295.775 246.236C291.738 247.017 289.719 249.096 289.081 251.105C288.762 252.11 288.298 253.63 287.727 254.328C286.823 255.444 287.089 257.174 287.514 259.769C287.753 261.248 288.152 263.732 287.846 264.513C287.527 265.322 286.359 266.927 285.309 268.336C283.609 270.638 281.843 273.038 281.378 274.936C280.887 276.889 281.471 279.331 281.989 281.493C282.215 282.428 282.547 283.837 282.52 284.13C280.953 288.316 282.945 292.697 287.235 294.525C287.952 294.832 288.67 294.985 289.387 294.985C291.153 294.985 292.548 294.05 293.756 293.227C294.62 292.641 295.443 292.083 296.346 291.874C300.477 290.897 303.93 282.275 307.688 271.964C308.591 269.508 309.601 266.718 309.999 266.146C311.075 264.569 311.713 262.03 312.377 259.323C312.855 257.383 313.452 254.984 314.024 254.23C314.395 253.742 314.807 253.379 315.192 253.002C316.534 251.747 318.194 250.184 318.34 246.04C318.433 243.124 317.955 231.92 315.338 229.074C314.621 228.335 313.877 228.181 313.373 228.181ZM314.913 245.942C314.834 248.566 314.063 249.291 312.908 250.365C312.39 250.854 311.845 251.37 311.367 252.012C310.331 253.365 309.747 255.709 309.07 258.444C308.538 260.607 307.927 263.048 307.224 264.081C306.599 265.001 305.856 266.983 304.501 270.708C302.642 275.815 298.272 287.772 295.589 288.4C294.102 288.748 292.946 289.544 291.91 290.241C290.967 290.883 290.144 291.441 289.374 291.441C289.095 291.441 288.816 291.371 288.497 291.246C285.96 290.158 284.792 287.772 285.668 285.456C286.12 284.242 285.748 282.651 285.27 280.642C284.871 278.982 284.38 276.93 284.646 275.87C284.951 274.67 286.638 272.382 287.979 270.54C289.321 268.713 290.476 267.15 290.967 265.894C291.645 264.178 291.246 261.639 290.861 259.197C290.715 258.276 290.503 256.937 290.516 256.379C291.392 255.151 291.91 253.463 292.402 251.928C292.561 251.44 293.73 250.268 296.373 249.765C298.684 249.319 300.039 248.077 301.141 247.072C301.778 246.487 302.296 246.012 302.881 245.803C305.723 244.756 306.931 241.715 307.595 240.068C307.768 239.65 309.017 238.799 309.614 238.38C310.292 237.92 310.929 237.487 311.381 236.999C312.045 236.301 312.31 235.297 312.629 234.139C312.762 233.636 313.028 232.673 313.213 232.129C314.223 234.39 315.059 241.617 314.913 245.942ZM321.899 111.971C321.156 111.05 320.133 110.701 318.234 111.008C316.162 111.343 314.515 112.32 312.921 113.283C310.996 114.441 309.163 115.529 306.533 115.529L305.975 115.515C302.509 115.515 299.866 117.12 297.741 118.417C296.213 119.352 294.885 120.161 293.491 120.203C291.884 120.203 289.666 119.143 288.444 117.803C287.926 117.231 287.806 116.84 287.82 116.771C288.457 116.003 288.763 115.055 288.683 114.05C288.457 111.232 285.323 108.553 282.281 105.958L281.325 105.134C280.156 104.116 278.589 103.279 276.942 102.372C273.874 100.712 270.394 98.828 269.877 95.9119C268.801 89.9124 267.552 87.945 264.365 85.0708C263.674 84.4429 263.063 84.0104 262.519 83.6337C260.991 82.5594 260.301 82.0571 259.411 76.0436C258.349 68.8721 256.29 66.7791 253.899 64.3517C253.235 63.6819 252.531 62.9704 251.801 62.0635C250.486 60.445 249.742 58.7428 248.693 56.385C247.365 53.3713 245.718 49.6322 242.106 44.3302C241.959 44.1209 241.827 43.9255 241.707 43.7442C242.623 43.6744 244.722 43.1582 245.094 39.8516C245.877 33.0709 243.739 28.2711 241.481 26.0526C240.153 24.7551 238.055 25.2434 236.368 26.0387C235.691 26.3596 234.947 26.7084 234.11 26.6247C232.835 25.7736 230.777 24.769 228.213 24.769C226.58 24.769 224.999 25.1736 223.498 25.9968C220.709 27.5176 217.761 27.9223 210.802 25.9689C207.309 24.9923 204.334 24.8667 201.943 24.769C199.061 24.6574 196.962 24.5597 195.249 23.1645C191.955 20.4717 185.806 21.546 183.628 24.8248C182.764 26.1084 182.565 27.5874 183.043 28.9828C183.362 29.9176 183.282 30.9919 182.831 31.6616C182.525 32.1081 182.114 32.3313 181.542 32.3313C180.905 32.3313 179.776 32.0523 178.116 30.7408C175.367 28.5781 173.454 27.6433 171.741 27.6433C171.263 27.6433 170.864 27.7131 170.479 27.7828C170.32 27.8107 170.174 27.8526 170.001 27.8526C169.948 27.8526 169.842 27.8526 169.616 27.741C169.337 27.6154 169.138 27.1689 168.793 26.4155C167.982 24.6157 166.747 21.895 161.979 20.7088C159.881 20.1786 157.968 20.0949 156.507 20.1647L155.79 20.1926C155.113 20.1926 154.409 20.1926 151.992 18.2393C150.013 16.6487 149.628 16.0069 149.574 16.0069C149.681 15.8534 149.986 15.5604 150.199 15.3651C150.478 15.1 150.77 14.8349 151.035 14.514C152.164 13.2443 153.28 10.9282 153.028 8.24939C152.855 6.47745 151.992 3.88214 148.884 1.56617C145.789 -0.735963 142.336 -0.10811 139.401 0.966218C137.621 1.62197 135.987 2.23589 134.022 1.92893C130.569 1.3848 127.873 1.04994 125.07 1.04994C122.441 1.04994 119.917 1.37085 117.381 2.02662C116.531 2.24986 115.216 2.73819 113.609 3.35208C109.784 4.81709 104.02 7.0214 99.5571 7.0214C98.2556 7.0214 97.1532 6.82606 96.2767 6.4633C95.3204 6.05869 94.497 5.68197 93.7798 5.37501C91.5884 4.39833 90.3931 3.86817 89.1976 3.86817C87.3382 3.86817 86.3156 5.19363 85.3594 6.67261C83.7789 9.10033 81.3219 12.4211 78.3734 13.2022C71.7991 14.9323 70.0328 19.0482 68.6647 23.4851C68.3061 24.6711 68.16 25.8012 68.0272 26.7918C67.6553 29.666 67.4295 31.3962 62.2632 33.1682C55.2374 35.582 53.8162 37.368 51.917 40.3258C51.6115 40.7862 51.2928 41.2885 50.9076 41.8326C50.0841 42.9907 49.1013 43.9394 48.0521 44.944C46.1662 46.7578 44.0279 48.8226 42.7131 52.4227C42.0357 54.2783 40.535 55.7433 38.8085 57.4453C36.4046 59.8033 33.682 62.4823 32.5131 66.9328C31.1053 72.2905 31.8225 74.9276 32.46 77.2435C32.7123 78.1644 32.9381 78.9736 32.9912 79.9084C33.1772 83.1035 32.5662 85.894 30.9459 89.2565C30.1889 90.8332 29.9897 92.1586 29.817 93.2191C29.5779 94.8097 29.4319 95.7724 27.5858 97.4049C24.5709 100.07 24.717 105.135 27.9975 111.301C29.8967 114.887 33.1372 118.752 35.9796 122.143C37.839 124.361 40.3891 127.403 40.5883 128.184C40.5485 130.291 40.9204 137.378 47.6008 140.518C51.7845 142.485 53.2319 144.508 55.0516 147.075C55.4235 147.591 55.7954 148.122 56.2071 148.652C57.9602 150.968 61.2805 153.437 65.3711 153.437C67.6023 153.437 69.754 152.698 71.7328 151.233C73.5258 149.907 75.7836 149.238 78.4131 149.238C81.9192 149.238 85.0272 150.41 86.2093 150.912C87.5242 151.47 89.1046 152.042 90.8976 152.042C93.3148 152.042 95.7718 151.052 99.1055 148.735C103.448 145.722 109.133 144.55 114.977 145.443C116.677 145.694 117.62 147.215 118.961 149.684C120.382 152.307 122.189 155.656 126.239 154.916C127.634 154.665 128.869 154.4 129.971 154.149C132.548 153.591 134.487 153.256 134.992 153.646C135.483 154.023 135.815 154.498 136.254 155.084C136.918 156.004 137.741 157.135 139.322 158.139C140.251 158.725 139.866 163.818 138.976 165.52C138.538 166.357 138.272 167.683 137.874 169.789C137.529 171.589 136.825 175.342 136.094 175.956C135.523 176.403 135.178 177.073 135.111 177.826C134.899 180.156 137.343 183.17 141.367 187.858C142.389 189.044 143.332 190.132 143.97 190.983C146.666 194.569 153.28 205.787 154.887 211.13C155.524 213.237 155.431 214.214 155.338 215.372C155.139 217.618 155.166 219.572 157.251 224.301C158.712 227.594 157.357 229.394 154.834 232.296C152.881 234.542 150.677 237.096 150.876 240.835C150.982 242.9 150.318 244.239 149.548 245.788C148.073 248.718 146.4 252.053 150.225 259.503C152.655 264.219 154.86 267.805 156.64 270.693C158.751 274.125 160.279 276.594 160.691 278.618C160.996 280.153 160.89 281.087 160.784 282.092C160.611 283.613 160.438 285.162 161.687 287.77C162.47 289.403 162.603 291.37 162.736 293.268C162.869 295.333 163.001 297.286 163.905 298.946C165.458 301.807 166.083 302.546 166.973 303.509C169.748 306.508 171.555 310.708 172.046 313.331C172.405 315.187 173.613 316.624 174.676 317.893C175.459 318.828 176.349 319.875 176.283 320.516C176.23 320.991 176.11 321.507 175.991 322.051C175.446 324.493 174.516 328.581 178.819 331.832L179.457 332.32C180.719 333.311 182.034 334.329 183.919 334.329C185.128 334.329 186.377 333.925 187.864 333.046C189.684 331.971 193.402 331.26 197.094 331.26C198.808 331.26 200.295 331.427 201.105 331.692C201.716 331.902 202.327 332.013 202.938 332.013C204.731 332.013 206.086 331.12 207.082 330.464C207.388 330.269 207.799 329.99 208.078 329.948L208.995 329.962C211.558 329.962 215.675 329.195 221.904 322.54C224.348 319.931 226.406 317.684 228.173 315.773C231.945 311.671 234.442 308.964 235.956 307.764C238.891 305.434 240.963 298.36 240.883 295.723C240.843 294.705 240.804 293.295 248.361 290.31C252.518 288.663 252.611 285.329 252.69 282.371C252.703 281.785 252.73 281.157 252.77 280.515C252.903 278.785 252.371 276.566 251.8 274.209C251.282 272.046 250.299 268.014 251.11 267.302L251.853 266.591C254.616 264.135 263.063 256.685 265.613 255.778C267.671 255.038 277.925 250.992 278.031 243.695L278.057 241.672C278.243 229.854 278.164 223.087 277.194 221.12C276.902 220.548 276.49 219.906 275.999 219.195C274.684 217.241 273.183 215.037 273.542 211.8C274.113 206.568 274.006 204.824 272.094 202.41C271.51 201.573 272.426 197.234 273.568 195.35C274.75 193.397 285.256 177.449 288.43 173.612C289.174 172.705 291.06 170.919 293.251 168.855C300.715 161.795 312.004 151.107 314.209 142.861C315.471 138.132 317.317 133.932 318.937 130.221C320.876 125.811 322.403 122.338 322.125 119.631C322.005 118.459 322.191 117.273 322.337 116.226C322.629 114.65 322.856 113.129 321.899 111.971ZM286.4 120.677C288.259 122.463 291.128 123.789 293.745 123.789H293.758C295.856 123.705 297.689 122.589 299.456 121.514C301.408 120.329 303.427 119.101 306.189 119.101H306.548C310.081 119.101 312.485 117.664 314.623 116.38C314.716 116.324 314.796 116.296 314.875 116.24C313.135 120.231 309.935 126.872 306.973 132.076C306.309 132.146 303.945 132.174 297.278 130.402C290.81 128.686 289.8 127.054 288.711 125.309C288.353 124.737 287.981 124.137 287.423 123.51C286.294 122.24 286.055 121.501 286.4 120.677ZM285.258 114.427C284.381 115.473 284.209 116.84 284.7 118.194L281.459 119.101C281.393 118.431 281.366 117.454 281.619 116.408C281.991 114.859 282.416 113.98 284.408 112.808C284.952 113.478 285.311 114.064 285.258 114.427ZM266.518 96.5816C267.355 101.2 271.791 103.614 275.363 105.553C276.851 106.362 278.259 107.13 279.149 107.897L280.118 108.734C280.822 109.334 282.071 110.408 283.173 111.497C281.061 112.836 280.41 114.05 279.946 115.975C279.388 118.305 279.932 120.37 279.959 120.454C280.078 120.928 280.556 121.193 280.995 121.082L284.806 120.021C284.262 121.347 284.421 122.784 286.161 124.737C286.613 125.24 286.931 125.756 287.264 126.3C288.472 128.239 289.721 130.249 296.826 132.146C301.581 133.416 304.317 133.806 305.884 133.89C304.914 135.508 303.985 136.904 303.175 137.908C302.271 139.038 301.448 140.113 300.678 141.131C297.729 145.01 295.764 147.591 293.32 147.591H293.174C290.331 147.591 287.423 149.628 285.285 151.107C284.488 151.665 283.797 152.154 283.266 152.419C281.858 153.144 281.035 152.768 279.547 152.056L278.71 151.665C276.811 150.814 274.673 153.075 273.132 154.735C272.76 155.139 272.229 155.698 272.123 155.767C272.07 155.781 271.924 155.725 271.698 155.628C271.074 155.349 270.117 154.93 268.245 155.014H268.085C266.279 155.014 264.061 153.842 261.91 152.698C260.953 152.196 260.01 151.693 259.094 151.289C258.536 151.037 258.018 150.884 257.487 150.744C257.792 149.419 257.726 148.359 257.248 147.619C256.956 147.159 256.371 146.601 255.229 146.517C254.419 146.461 253.981 145.554 253.423 144.173C253.038 143.224 252.679 142.331 252.015 141.787C251.696 141.536 251.245 140.824 250.793 140.155C249.625 138.383 248.177 136.164 246.092 136.164H245.999C245.229 136.178 245.003 136.025 244.976 135.969C244.936 135.899 244.91 135.55 245.295 134.797C245.401 134.574 245.627 134.518 246.318 134.406C246.862 134.322 247.553 134.197 248.23 133.792C249.479 133.039 249.585 130.625 249.691 127.835C249.744 126.676 249.784 125.574 249.917 124.779C250.063 123.886 250.395 123.523 250.846 123.035C251.457 122.379 252.214 121.57 252.374 119.561C252.546 117.44 253.861 115.863 255.535 113.868C256.053 113.24 256.611 112.57 257.168 111.845C258.935 109.543 258.815 106.11 258.696 102.804C258.629 101.088 258.576 99.3159 258.762 97.7252C259.2 94.0559 261.631 91.4885 264.008 89.8144C265.283 91.3212 265.88 93.0238 266.518 96.5816ZM239.663 177.912C239.61 177.688 239.491 177.493 239.318 177.368C239.265 177.298 239.238 177.214 239.185 177.158C238.973 176.949 238.959 176.782 238.973 176.642C239.039 176.154 239.57 175.582 239.916 175.4C240.5 175.079 240.699 174.94 240.899 174.8C241.204 174.591 241.536 174.354 243.847 173.182C244.75 172.721 245.374 172.498 245.72 172.498C245.852 172.498 245.892 172.512 246.198 172.777C246.596 173.14 247.194 173.684 248.429 173.921C249.664 174.158 250.421 174.661 250.674 174.94C250.594 174.982 250.474 175.024 250.288 175.079C248.827 175.47 248.084 176.168 247.552 177.186C247.552 177.186 247.539 177.186 247.539 177.2V177.214C247.181 177.926 246.915 178.805 246.623 179.851L246.37 180.744C245.999 182.028 245.919 183.2 245.852 184.051C245.826 184.358 245.799 184.72 245.773 184.958C245.76 184.944 245.733 184.944 245.72 184.93C243.289 183.953 241.722 184.023 239.889 185.292C239.557 184.999 239.252 183.437 239.597 182.767C240.341 181.33 240.5 179.363 239.663 177.912ZM248.269 172.01C247.844 171.843 247.539 171.661 247.3 171.438C246.662 170.866 245.799 170.224 243.116 171.577C240.699 172.805 240.34 173.042 239.955 173.308C239.783 173.433 239.61 173.545 239.119 173.824C238.468 174.187 237.445 175.163 237.286 176.419C237.246 176.698 237.312 176.963 237.365 177.228C236.808 177.2 236.316 177.172 235.891 177.144C234.497 177.033 233.487 177.005 232.624 177.758C232.611 177.772 232.584 177.758 232.571 177.772C232.531 177.8 232.531 177.856 232.505 177.884C232.332 178.051 232.172 178.177 232.013 178.414C231.535 179.126 231.203 179.461 230.937 179.502C230.765 179.53 230.446 179.433 229.915 179.042C229.955 178.637 229.994 178.191 230.021 177.619C230.127 176.07 230.273 173.949 230.698 171.801C231.137 169.624 232.956 167.88 234.417 166.471C235.334 165.578 236.144 164.797 236.516 164.015C237.14 162.704 236.449 161.56 235.852 160.555C235.36 159.746 234.882 158.881 234.842 157.806C235.307 157.611 235.719 157.374 236.077 157.137C236.662 156.746 237.113 156.453 237.764 156.453C238.521 156.453 238.906 156.662 239.345 156.899C239.783 157.137 240.274 157.402 241.005 157.402C241.655 157.402 242.359 157.109 243.183 156.774C244.179 156.369 245.308 155.895 246.477 155.895C247.499 155.895 248.163 155.379 248.681 154.737C248.947 155.225 249.266 155.755 249.598 156.327C250.833 158.406 252.373 160.988 252.174 163.08C252.002 164.782 251.112 166.345 250.155 168.005C249.452 169.247 248.721 170.573 248.269 172.01ZM245.733 218.751C246.025 218.751 246.291 218.737 246.543 218.723C246.463 220.495 246.623 222.35 247.685 223.704C248.509 224.736 248.216 226.285 248.044 227.317C247.991 227.568 247.831 228.001 247.645 228.461C247.127 229.787 246.41 231.615 247.247 232.996C247.672 233.693 248.123 235.689 248.442 237.154C248.748 238.535 248.947 239.414 249.173 239.888C249.651 240.907 250.912 241.102 251.829 241.102C252.094 241.102 252.32 241.088 252.506 241.06C252.891 241.297 253.861 241.967 253.701 242.735C253.542 243.516 253.635 244.409 253.741 245.274C253.808 245.832 253.927 246.892 253.755 247.102C252.533 247.339 251.869 248.65 251.337 249.711C251.178 250.032 250.952 250.492 250.793 250.701C250.275 250.478 249.199 249.711 248.787 248.678C248.535 248.036 248.588 247.437 248.96 246.823C250.076 244.981 250.248 242.735 249.372 241.228C248.801 240.251 247.844 239.763 246.822 239.86C245.773 240 245.308 239.498 244.657 238.814C244.365 238.507 244.059 238.186 243.687 237.921C243.316 237.67 242.2 236.875 242.226 236.484C243.767 235.312 244.976 231.922 245.201 229.438C245.348 227.889 244.737 227.15 244.325 226.675C243.993 226.285 243.873 226.145 243.98 225.545C244.019 225.35 244.019 225.35 244.298 225.21C245.68 224.555 246.304 223.271 245.733 218.751ZM250.421 234.252C250.66 236.414 251.205 237.698 251.563 238.563C251.709 238.898 251.789 239.121 251.842 239.316C251.284 239.316 250.793 239.232 250.7 239.093C250.554 238.772 250.315 237.698 250.102 236.749C249.691 234.893 249.279 232.982 248.681 232.033C248.323 231.447 248.841 230.122 249.212 229.145C249.438 228.587 249.624 228.085 249.704 227.652C249.916 226.452 250.328 224.248 248.987 222.559C248.309 221.694 248.177 220.369 248.216 219.015L248.455 219.336C249.491 220.634 250.541 221.987 250.461 226.522C250.448 227.164 250.726 227.512 250.952 227.694C251.165 227.861 251.404 227.917 251.656 227.945C251.616 228.015 251.59 228.084 251.563 228.168C250.912 229.577 250.102 231.336 250.421 234.252ZM243.555 223.62C243.156 223.815 242.479 224.15 242.28 225.252C242.041 226.689 242.612 227.387 243.023 227.875C243.356 228.266 243.555 228.517 243.488 229.284C243.276 231.517 242.173 234.321 241.217 235.047C240.54 235.563 240.407 236.163 240.407 236.568C240.42 237.237 240.819 237.809 241.337 238.312C238.813 239.093 234.032 240.586 231.841 241.493C230.605 242.009 229.822 242.455 229.53 243.209C229.264 243.934 229.556 244.59 229.862 245.274C229.902 245.358 229.941 245.497 229.981 245.581C226.342 245.916 224.191 247.088 223.779 249.18C223.633 249.906 222.557 250.632 221.309 251.483C219.954 252.403 218.254 253.548 216.926 255.292C215.279 257.454 214.376 257.329 211.666 256.966C211.148 256.896 210.551 256.826 209.913 256.757C208.983 255.278 207.908 254.008 206.606 253.994C206.168 253.98 205.796 253.854 205.331 253.673C204.189 253.255 202.728 252.794 199.819 253.868C199.301 253.268 198.717 252.641 198.146 252.041C197.216 251.05 195.941 249.697 195.808 249.432L195.795 235.912H199.554C202.077 235.912 204.773 234.6 204.773 230.889V226.382C204.787 226.382 204.813 226.382 204.84 226.396C205.252 226.508 205.823 226.899 206.473 227.359C207.682 228.21 209.356 229.382 211.733 229.87C214.509 230.442 215.797 229.829 216.74 229.396C217.059 229.257 217.298 229.131 217.404 229.075C217.51 229.145 217.749 229.522 217.922 229.787C218.573 230.833 219.569 232.41 221.853 232.605C222.863 232.689 223.234 233.456 223.739 234.712C224.098 235.619 224.669 237.028 226.01 237.028C226.276 237.028 226.555 236.972 226.887 236.847C227.445 236.637 227.79 236.735 228.149 236.847C228.534 236.958 229.53 237.251 230.008 235.996C230.327 235.13 230.234 233.735 230.141 232.27C230.101 231.698 230.061 231.154 230.061 230.707C230.061 230.052 229.742 229.731 229.556 229.605C228.985 229.187 228.321 229.466 227.617 229.759C226.741 230.121 226.037 230.373 225.665 229.968C224.802 229.061 224.974 226.898 225.094 225.308C225.134 224.778 225.174 224.289 225.174 223.899C225.174 221.415 225.094 218.638 224.084 217.132C224.071 217.062 224.151 216.727 224.602 216.183C225.97 214.551 229.317 212.793 233.408 212.793C233.567 212.793 233.859 213.183 234.098 213.49C234.417 213.909 234.829 214.411 235.373 214.774C235.4 214.802 235.44 214.816 235.466 214.844C235.812 215.053 236.183 215.234 236.662 215.29C237.883 215.444 239.384 216.239 241.124 217.174C241.708 217.481 242.306 217.802 242.917 218.109C243.276 218.29 243.634 218.429 243.98 218.513C244.617 223.048 243.953 223.424 243.555 223.62ZM239.889 264.513C240.221 265.155 240.301 265.978 240.115 266.634C240.035 266.899 239.876 267.262 239.557 267.429C238.335 268.099 237.592 269.299 237.406 270.904C237.339 271.49 236.609 272.48 235.227 273.806C234.125 274.88 233.036 276.206 232.571 276.778C230.579 276.959 229.344 276.568 228.268 276.192C227.551 275.94 226.847 275.759 226.063 275.759C225.054 274.489 223.792 273.806 222.663 273.22C221.362 272.55 220.339 272.02 219.901 270.806C219.596 269.983 219.781 269.536 219.967 269.048C220.14 268.643 220.366 268.085 220.087 267.471C219.795 266.802 219.091 266.383 217.298 265.811C214.389 264.876 213.526 263.076 212.822 261.625C212.556 261.067 212.291 260.537 211.946 260.118C211.72 259.839 211.388 259.281 211.042 258.667C211.162 258.681 211.308 258.709 211.428 258.723C214.256 259.114 215.983 259.351 218.241 256.393C219.396 254.886 220.884 253.868 222.212 252.975C223.779 251.914 225.121 251.007 225.413 249.542C225.652 248.315 227.432 247.505 230.314 247.282V248.803C230.314 249.054 230.407 249.291 230.579 249.459C230.752 249.626 230.978 249.71 231.217 249.696L234.391 249.487C235.175 250.128 237.353 251.817 239.079 251.928C239.584 251.956 240.155 252.375 240.567 253.03C241.178 253.993 241.337 255.179 240.992 256.212C239.916 259.518 239.013 262.811 239.889 264.513ZM186.445 288.581V277.043H189.951C190.416 277.043 190.801 276.638 190.801 276.15V259.741L199.699 258.444L201.226 259.672C201.559 259.937 202.01 259.895 202.316 259.616C202.329 259.602 203.989 258.123 208.491 258.388C208.651 258.402 208.77 258.416 208.916 258.43C209.116 258.765 209.288 259.086 209.448 259.351C209.912 260.16 210.298 260.858 210.669 261.304C210.869 261.541 211.068 261.96 211.307 262.434C212.064 263.997 213.206 266.355 216.792 267.527C217.841 267.862 218.28 268.085 218.466 268.197C218.439 268.252 218.426 268.308 218.399 268.35C218.16 268.95 217.748 269.941 218.306 271.448C218.984 273.317 220.471 274.085 221.905 274.824C222.729 275.243 223.513 275.661 224.177 276.275C223.858 276.526 223.672 276.819 223.539 277.056C223.313 277.433 223.167 277.67 222.065 277.712C220.126 277.782 219.435 278.954 218.877 279.875C218.439 280.614 218.054 281.256 217.045 281.605C215.331 282.191 214.574 283.684 213.963 284.87C213.366 286.028 213.007 286.684 212.237 286.809C210.072 287.158 209.328 289.069 208.837 290.339C208.717 290.674 208.531 291.12 208.438 291.218C208.093 291.567 206.752 291.539 205.065 291.511C204.534 291.497 203.949 291.497 203.298 291.497C201.864 291.497 201.652 291.148 201.399 290.744C201.147 290.325 200.709 289.627 199.54 289.627C197.986 289.627 197.641 290.144 196.95 291.427C196.618 292.027 196.18 292.837 195.383 294.022C193.51 296.799 190.123 296.576 188.848 296.255C188.901 296.143 188.955 296.004 189.008 295.892C189.287 295.264 189.672 294.427 189.712 293.45C189.791 291.441 188.118 289.349 186.445 288.581ZM233.419 211.019C233.14 211.019 232.888 211.061 232.622 211.075C232.383 209.331 231.52 208.285 230.564 207.238C229.846 206.443 229.116 205.634 228.505 204.35C227.137 201.476 227.031 197.96 227.389 193.467C228.917 195.337 229.913 198.086 230.006 200.095C230.112 202.425 230.245 202.732 231.228 203.96C231.467 204.266 231.785 204.657 232.184 205.201C233.286 206.722 233.565 207.992 234.096 210.28C234.163 210.587 234.256 210.95 234.322 211.285C234.043 211.145 233.764 211.019 233.419 211.019ZM229.846 193.97C229.222 192.854 228.452 191.863 227.562 191.11C227.708 189.142 227.535 188.082 227.217 187.342C227.482 187.287 227.695 187.356 227.987 187.496C228.319 187.649 228.744 187.859 229.315 187.859C229.461 187.859 229.62 187.845 229.793 187.817C230.643 187.649 231.161 186.994 231.613 186.421C231.905 186.045 232.131 185.78 232.37 185.612C232.436 186.17 232.781 186.687 233.127 187.189C233.432 187.635 233.751 188.096 233.897 188.598C233.95 188.807 234.003 190.091 229.846 193.97ZM233.685 183.77C231.852 183.324 230.909 184.496 230.271 185.291C229.979 185.668 229.7 186.017 229.448 186.073C229.169 186.128 229.01 186.059 228.664 185.891C228.08 185.612 227.469 185.403 226.645 185.668C226.659 185.361 226.712 184.984 226.858 184.384C227.429 182.04 228.08 181.733 228.571 181.496C228.837 181.371 229.142 181.134 229.395 180.799C229.899 181.106 230.391 181.301 230.842 181.301C230.949 181.301 231.055 181.287 231.148 181.273C231.892 181.161 232.463 180.659 232.941 180.045C234.123 182.124 234.163 183.087 234.07 183.38C234.043 183.491 233.95 183.645 233.685 183.77ZM248.055 152.615C247.444 153.647 247.112 154.094 246.475 154.094C244.987 154.094 243.632 154.652 242.557 155.098C241.946 155.349 241.335 155.6 241.003 155.6C240.697 155.6 240.498 155.503 240.126 155.294C239.622 155.028 238.931 154.652 237.762 154.652C236.62 154.652 235.85 155.168 235.159 155.614C234.615 155.977 234.15 156.284 233.512 156.326H233.486C232.994 156.326 232.41 155.335 231.892 154.456C231.307 153.466 230.71 152.447 229.833 151.833C228.824 151.136 227.124 151.345 225.331 151.554C223.95 151.722 221.878 151.973 221.546 151.387C221.001 150.438 220.138 149.95 219.208 149.671L218.876 147.034C218.597 144.801 216.419 143.155 214.135 141.425C212.515 140.197 210.828 138.927 209.633 137.365C207.893 135.105 206.538 134.351 205.343 133.695C204.453 133.207 203.683 132.775 202.833 131.7C202.301 131.017 202.248 129.831 202.7 128.408C203.523 125.826 205.688 123.454 207.614 122.994C208.637 122.757 208.637 122.799 208.982 123.496C209.566 124.668 210.536 126.65 215.649 127.487C221.864 128.505 224.295 126.803 226.247 125.45C226.938 124.961 227.536 124.557 228.213 124.334C229.408 123.957 229.94 124.361 230.75 124.975C231.44 125.506 232.304 126.161 233.632 126.161C236.222 126.161 238.373 124.194 240.206 120.134C240.99 118.404 240.817 116.757 240.671 115.446C240.485 113.702 240.551 113.52 241.428 113.353C242.371 113.172 243.008 113.213 243.301 113.465C243.805 113.883 243.912 115.376 243.965 116.981C244.111 120.678 245.027 122.408 248.241 125.003C248.148 125.813 248.095 126.733 248.055 127.738C247.989 129.175 247.883 131.84 247.444 132.217C247.033 132.454 246.581 132.538 246.103 132.621C245.333 132.747 244.376 132.9 243.858 133.947C243.247 135.161 243.154 136.151 243.606 136.905C244.018 137.588 244.801 137.937 245.943 137.937C246.01 137.937 246.103 137.923 246.156 137.937C247.351 137.937 248.52 139.709 249.463 141.146C250.021 142.011 250.512 142.751 251.043 143.183C251.362 143.434 251.654 144.16 251.933 144.857C252.491 146.253 253.275 148.164 255.201 148.29C255.732 148.332 255.865 148.527 255.904 148.597C256.104 148.904 256.051 149.587 255.865 150.397C254.483 150.215 253.222 150.271 252.132 150.327C251.734 150.355 251.336 150.383 250.95 150.383C249.396 150.397 248.653 151.624 248.055 152.615ZM179.922 155.419C179.922 155.67 179.922 155.991 179.936 156.284C179.458 156.326 178.594 156.242 177.904 156.173C175.765 155.949 173.123 155.67 171.223 156.982C170.294 157.624 169.749 158.405 169.39 159.214C167.252 157.498 163.812 154.038 163.401 149.28C162.989 144.523 164.941 141.076 168.753 139.835C170.466 139.276 172.246 139.109 173.959 138.956C176.655 138.704 179.205 138.481 181.317 136.793C182.008 136.235 182.685 135.677 183.349 135.119C185.753 133.11 188.024 131.198 191.251 129.761C193.23 128.882 194.479 127.152 195.488 125.757C196.139 124.85 196.829 123.901 197.294 123.887C197.494 123.817 197.852 124.096 198.237 124.501C198.636 125.771 200.044 127.068 201.093 127.877C200.442 129.914 200.601 131.686 201.531 132.858C202.594 134.198 203.59 134.756 204.559 135.286C205.661 135.9 206.79 136.528 208.318 138.495C209.659 140.239 211.505 141.648 213.152 142.876C215.144 144.383 217.03 145.806 217.203 147.271L217.455 149.35C216.951 149.308 216.459 149.308 216.034 149.308H215.915C215.676 149.308 215.45 149.308 215.264 149.294C214.959 149.28 214.348 149.029 213.816 148.792C212.422 148.192 210.496 147.369 209.354 148.848C208.862 149.49 208.743 149.49 207.986 149.504C207.548 149.518 206.937 149.532 206.126 149.699C205.011 149.922 204.307 150.494 203.736 150.955C203.059 151.499 202.74 151.75 201.943 151.457C199.605 150.606 198.45 151.75 197.321 152.852L196.79 153.355C196.312 153.801 196.312 153.801 195.541 153.62C194.824 153.452 193.762 153.187 191.822 153.187C189.657 153.187 188.489 151.903 187.453 150.773C186.642 149.894 185.859 149.057 184.77 149.057C182.406 149.057 179.882 152.266 179.882 154.526L179.922 155.419ZM166.415 126.287C166.402 126.259 165.26 123.147 164.622 119.576C164.596 119.464 164.516 119.408 164.463 119.325C164.503 119.227 164.569 119.143 164.596 119.032C165.578 115.809 166.057 112.907 161.939 110.186L160.93 109.53C159.748 108.762 158.805 108.163 158.725 107.716C158.632 107.2 159.376 106.042 159.947 105.219C160.757 104.047 161.687 102.958 162.59 101.898C164.543 99.6236 166.375 97.461 167 94.6146C167.358 92.9961 167.385 90.666 167.438 88.1964C167.491 85.1967 167.557 81.1085 168.461 80.2156C169.789 78.904 168.713 77.7041 168.009 76.9089C166.814 75.5694 165.034 73.5324 165.977 68.3144C167.372 67.4912 168.673 66.5145 169.35 65.9843C172.764 67.84 193.442 79.0997 201.916 83.4526V100.823C201.916 101.2 201.119 101.912 200.07 102.233C197.533 103.042 197.068 105.651 196.67 107.967C196.351 109.823 196.046 111.581 194.81 112.376C194.027 112.892 193.801 113.506 193.761 113.939C193.655 115.125 194.691 116.129 195.607 117.008C195.966 117.357 196.378 117.734 196.51 117.971C197.613 119.827 198.237 121.417 198.37 122.324C198.011 122.143 197.639 122.031 197.228 122.045C195.966 122.115 195.129 123.273 194.146 124.627C193.217 125.91 192.154 127.375 190.6 128.073C187.16 129.608 184.69 131.672 182.299 133.682C181.649 134.226 180.985 134.784 180.294 135.328C178.567 136.695 176.376 136.905 173.813 137.142C172.007 137.309 170.147 137.477 168.248 138.091C167.916 138.202 167.611 138.356 167.305 138.495C167.146 136.346 165.233 134.323 163.507 132.523C162.351 131.324 160.917 129.831 160.957 129.049C161.01 127.863 163.958 127.431 165.605 127.487C165.818 127.515 166.163 127.347 166.322 127.11C166.482 126.887 166.521 126.566 166.415 126.287ZM141.021 122.659C140.384 121.864 139.786 121.111 139.454 120.427C139.016 119.492 139.042 118.236 139.534 116.981C139.999 115.795 140.822 114.776 141.526 114.525C142.163 114.288 142.867 113.883 143.598 113.465C145.032 112.627 146.679 111.693 147.782 112.083C148.472 112.32 148.91 112.669 149.375 113.046C150.159 113.674 151.035 114.371 152.855 114.078C154.555 113.799 157.078 112.376 158.645 111.4C158.459 116.981 159.721 118.864 162.298 119.785C161.66 120.664 160.73 121.362 159.761 122.073C158.924 122.687 158.061 123.315 157.344 124.096C156.414 125.129 155.949 126.873 155.458 128.715C154.94 130.64 154.355 132.831 153.28 133.403C151.513 134.352 150.106 137.365 148.87 140.016C148.419 140.979 147.821 142.277 147.462 142.737C147.369 142.639 147.277 142.5 147.197 142.388C146.931 142.026 146.506 141.509 145.948 141.174C145.603 140.24 145.218 139.389 144.873 138.607C143.757 136.152 142.96 134.366 143.77 131.129C144.74 127.278 142.681 124.724 141.021 122.659ZM85.5605 126.008C84.0066 125.101 82.9441 125.185 81.5627 125.394C81.0846 125.464 80.5534 125.547 79.9026 125.575C78.9065 125.603 78.6541 125.129 78.0963 124.208C77.6979 123.566 77.1932 122.729 76.2768 122.45C76.4229 121.334 76.7151 119.366 77.2065 117.553C77.4854 116.492 78.0698 116.116 78.9596 115.543C79.9292 114.916 81.1377 114.134 82.0409 112.237C82.6651 110.911 82.9174 110.883 83.5682 110.786C84.3916 110.674 85.5073 110.507 87.3004 108.818C90.7932 105.54 95.0299 103.656 97.8326 103C98.3638 102.875 98.8818 102.861 99.3998 102.875C98.7623 105.595 100.994 108.093 102.415 109.683C102.826 110.144 103.371 110.744 103.517 111.037C103.358 111.623 103.158 112.558 103.636 113.339C104.048 113.995 104.805 114.385 106.027 114.553L106.771 114.636C108.099 114.79 108.179 114.86 108.272 116.199C108.152 116.38 108.046 116.562 107.926 116.771C107.382 117.845 106.558 118.348 105.496 118.99C104.779 119.422 103.969 119.91 103.132 120.65C102.879 120.873 102.747 121.138 102.601 121.403C101.777 120.817 100.622 120.12 99.5193 120.064C98.9084 120.022 98.1115 120.148 97.1818 120.287C95.5084 120.538 93.4364 120.845 91.5905 120.399C89.346 119.855 87.8716 119.966 86.8492 120.789C85.9859 121.473 85.5211 122.589 85.4547 124.194C85.4148 124.752 85.4808 125.38 85.5605 126.008ZM50.6187 107.27C50.2999 106.823 49.782 106.07 49.8085 105.847C50.1405 105.079 50.1671 103.74 49.8484 102.233C50.4992 101.591 50.8445 100.768 51.1101 100.056C51.6015 98.7867 51.8405 98.5077 52.5843 98.5635C53.4608 98.6332 53.7796 98.8844 54.2312 99.2192C55.0945 99.875 55.9179 100.377 58.1357 100.28L60.5795 100.182C61.6685 100.14 61.6818 100.14 62.3459 100.14C63.1162 100.14 72.1607 100.531 76.8357 100.74C77.274 100.782 77.5927 100.489 77.6857 100.084L78.6685 96.2196C78.7481 95.8847 78.6419 95.522 78.4028 95.2987L77.3669 94.3779L78.0575 56.331H83.7685C89.0279 61.0747 94.3007 65.7209 96.4389 67.2557C99.4006 69.3625 103.823 73.7853 107.037 77.0225C109.096 79.0874 110.729 80.72 111.566 81.3615C112.044 81.7243 112.39 82.1847 112.775 82.687C113.704 83.9008 114.727 85.2402 117.516 85.2402C117.662 85.2402 117.848 85.2123 118.007 85.2123C117.968 86.3564 118.034 87.6819 118.14 89.161C118.366 92.1747 118.658 95.9138 117.569 97.3651C116.52 98.7603 113.718 99.3882 111.247 99.9323C109.468 100.323 107.781 100.714 106.493 101.355C105.045 102.095 103.637 101.802 102.017 101.481C100.569 101.188 99.0818 100.895 97.4347 101.286C94.4332 101.997 89.8776 104.006 86.1457 107.522C84.7512 108.834 83.9809 108.946 83.3168 109.043C82.241 109.197 81.4574 109.448 80.5012 111.471C79.8106 112.922 78.9606 113.466 78.0442 114.052C77.0879 114.666 76.0121 115.364 75.5473 117.094C75.016 119.089 74.6973 121.21 74.5645 122.354C74.3387 122.284 74.1262 122.173 73.9004 121.991C73.1035 121.377 72.2535 120.903 70.4739 121.824C68.1763 122.996 67.977 122.968 66.2106 122.731C65.8919 122.689 65.5731 122.717 65.2809 122.8C63.4083 116.02 61.8147 112.42 60.5396 112.169C59.6232 111.987 58.8662 112.476 58.056 112.992C57.0068 113.662 55.7053 114.485 53.4076 114.485H53.381C51.867 114.485 51.5482 114.136 51.5084 114.08C51.3357 113.843 51.5482 113.076 51.7209 112.462C51.8537 111.973 51.9865 111.485 52.0529 111.011C52.2255 109.532 51.3358 108.274 50.6187 107.27ZM106.943 112.865L106.239 112.781C105.256 112.641 105.07 112.404 105.057 112.376C104.991 112.265 105.031 111.93 105.177 111.4C105.429 110.479 104.725 109.683 103.636 108.47C101.923 106.544 100.568 104.8 101.113 103.098C101.312 103.14 101.498 103.168 101.697 103.21C103.463 103.558 105.283 103.921 107.235 102.931C108.324 102.372 109.918 102.024 111.591 101.647C114.473 101.005 117.462 100.335 118.896 98.4379C120.41 96.4287 120.118 92.6476 119.839 88.9783C119.719 87.4575 119.626 86.0343 119.679 84.9739C119.799 84.946 119.905 84.946 120.025 84.9181C125.43 83.8019 128.273 81.7928 131.553 79.4629L132.655 78.6816C136.294 76.1283 147.716 68.6498 153.454 65.8595C154.715 65.8595 156.349 66.9059 157.85 67.8407C159.444 68.8174 160.944 69.7522 162.206 69.7522C162.75 69.7522 163.401 69.5708 164.092 69.2779C163.521 74.4681 165.566 76.8262 166.735 78.1377C166.974 78.4028 167.306 78.7795 167.253 78.9191C165.832 80.3282 165.765 84.1371 165.699 88.1693C165.659 90.4296 165.619 92.7737 165.314 94.2107C164.796 96.6105 163.096 98.5919 161.303 100.699C160.373 101.787 159.417 102.903 158.554 104.159C157.438 105.777 156.827 106.935 157.039 108.051C157.159 108.693 157.518 109.167 158.062 109.642C156.482 110.632 154.038 112.028 152.603 112.265C151.501 112.46 151.116 112.139 150.412 111.581C149.921 111.177 149.296 110.674 148.327 110.339C146.507 109.698 144.528 110.842 142.789 111.86C142.164 112.223 141.593 112.544 141.115 112.739C139.043 112.642 138.393 112.181 137.742 111.679C137.104 111.19 136.387 110.66 134.74 110.591C132.761 110.535 131.659 111.26 130.862 111.804C130.251 112.209 130.012 112.335 129.667 112.279C129.507 112.251 129.175 111.735 128.95 111.344C128.073 109.949 126.625 107.591 122.309 108.023C119.6 108.288 117.143 109.739 115.416 112.097C114.606 113.199 114.048 114.413 113.73 115.571C112.455 114.637 111.366 114.274 110.396 114.469C110.17 114.511 109.958 114.595 109.745 114.692C109.333 113.311 108.484 113.046 106.943 112.865ZM116.758 113.227C117.595 112.097 119.441 110.13 122.469 109.837C125.776 109.488 126.692 111.023 127.529 112.348C127.994 113.102 128.485 113.883 129.349 114.05C130.398 114.274 131.128 113.771 131.779 113.325C132.496 112.837 133.28 112.348 134.688 112.404C135.817 112.446 136.215 112.739 136.76 113.158C137.291 113.562 137.942 114.009 139.15 114.288C138.699 114.86 138.287 115.53 137.995 116.297C137.317 118.027 137.304 119.827 137.955 121.208C138.38 122.101 139.044 122.924 139.748 123.803C140 124.124 140.266 124.459 140.518 124.78C139.734 124.557 138.924 124.11 138.074 123.608C136.733 122.827 135.392 122.087 133.864 122.059C131.062 122.129 130.026 123.189 128.299 124.947L127.675 125.575C125.935 127.305 121.951 127.487 118.963 125.98C116.227 124.599 115.549 120.231 115.177 117.888C114.991 116.925 115.43 115.027 116.758 113.227ZM160.373 111.288L161.024 111.707C161.927 112.293 162.511 112.879 162.91 113.451C161.847 114.33 161.183 115.264 160.798 116.06C160.453 115.083 160.293 113.562 160.373 111.288ZM161.993 117.678C162.153 117.134 162.564 116.171 163.547 115.223C163.614 116.102 163.401 117.064 163.069 118.153C162.671 118.041 162.312 117.888 161.993 117.678ZM230.34 102.833C230.792 103.307 231.164 103.6 231.442 103.824C231.947 104.214 231.947 104.214 231.376 107.702C230.685 111.972 229.557 119.799 229.185 122.436C228.746 122.422 228.268 122.464 227.71 122.645C226.794 122.938 226.064 123.441 225.293 123.985C223.567 125.185 221.601 126.51 216.514 125.826C216.329 124.306 215.917 119.994 216.475 113.269C216.926 107.688 216.355 106 215.85 104.493C215.558 103.656 215.346 103.001 215.346 101.619V92.2433H228.335L229.995 97.4753C229.291 98.745 228.667 101.075 230.34 102.833ZM221.72 90.4432H214.495C214.031 90.4432 213.645 90.8479 213.645 91.3362V101.605C213.645 103.279 213.951 104.186 214.256 105.079C214.708 106.405 215.213 107.912 214.788 113.102C214.27 119.353 214.562 123.552 214.774 125.506C211.547 124.766 210.923 123.58 210.485 122.687C209.953 121.613 209.342 120.762 207.231 121.264C204.946 121.808 202.967 123.929 201.799 126.175C200.696 125.255 199.806 124.25 199.793 123.901C200.696 122.185 199.009 118.879 197.92 117.064C197.655 116.618 197.203 116.185 196.725 115.725C196.34 115.348 195.41 114.469 195.424 114.162C195.424 114.162 195.463 114.079 195.663 113.953C197.549 112.739 197.96 110.409 198.306 108.344C198.717 105.944 199.076 104.466 200.524 104.005C202.038 103.531 203.578 102.373 203.578 100.894V81.5418H221.707L221.72 90.4432ZM251.524 66.9197C253.622 69.0544 255.149 70.6029 256.039 76.5886C257.062 83.4671 258.151 84.8623 260.608 86.5925C261.06 86.9134 261.564 87.2622 262.135 87.7924C262.414 88.0435 262.653 88.2668 262.892 88.504C259.559 90.9317 257.58 94.0013 257.155 97.4892C256.942 99.2332 257.009 101.075 257.075 102.861C257.181 105.986 257.288 108.944 255.92 110.73C255.375 111.441 254.831 112.083 254.326 112.697C252.533 114.846 250.979 116.702 250.753 119.408C250.647 120.776 250.222 121.222 249.704 121.78C249.385 122.129 249.027 122.548 248.735 123.147C246.384 121.152 245.799 119.841 245.68 116.911C245.587 114.65 245.441 112.976 244.365 112.069C243.635 111.455 242.638 111.316 241.124 111.595C238.588 112.083 238.813 114.148 238.986 115.655C239.106 116.799 239.252 118.097 238.667 119.366C237.14 122.743 235.48 124.375 233.62 124.375C232.837 124.375 232.359 123.998 231.734 123.538C231.469 123.329 231.15 123.119 230.818 122.924C231.15 120.566 232.319 112.39 233.036 107.995C233.7 103.935 233.78 103.419 232.438 102.372C232.199 102.191 231.894 101.954 231.522 101.549C230.22 100.182 231.562 98.1725 231.615 98.0888C231.774 97.8516 231.814 97.5586 231.734 97.2795L229.742 91.0289C229.623 90.6661 229.304 90.4149 228.932 90.4149H223.407V80.5925C223.407 80.1041 223.022 79.6995 222.557 79.6995H207.629L207.177 72.1651C208.652 72.221 211.72 72.3186 215.279 72.3186C217.763 72.3186 220.485 72.2768 223.035 72.1233C230.805 71.6908 239.424 71.8163 241.722 72.1093C243.555 72.3186 245.148 70.742 247.22 68.7468C248.19 67.7981 249.305 66.7935 250.501 65.8447C250.859 66.2354 251.191 66.5848 251.524 66.9197ZM209.914 29.4014C217.339 31.4942 220.739 31.4942 225.055 29.1502C227.698 27.7132 230.845 28.6619 232.293 29.6246C233.94 30.7268 236.158 30.0432 237.765 29.2758C238.31 29.0247 238.987 28.7037 239.16 28.634C240.727 30.1827 242.347 33.922 241.723 39.3912C241.656 39.9074 241.55 40.1446 241.484 40.1446C241.085 40.1446 240.461 39.8935 240.01 39.7121C239.478 39.5028 239.014 39.3214 238.522 39.3214C237.885 39.3214 237.141 39.7819 236.849 40.3679C236.211 41.6654 236.942 42.8375 239.346 46.3674C242.772 51.3901 244.34 54.9762 245.615 57.8501C246.677 60.2639 247.607 62.3566 249.214 64.3379C249.267 64.4077 249.32 64.4635 249.373 64.5193C248.178 65.482 247.062 66.4866 246.106 67.4214C244.432 69.0538 242.958 70.477 241.962 70.3235C239.611 70.0305 230.832 69.891 222.97 70.3374C216.728 70.6863 209.449 70.463 207.112 70.3654L204.974 28.4788C206.488 28.6601 208.108 28.8991 209.914 29.4014ZM152.91 23.0111C154.145 23.5971 155.261 23.7924 156.669 23.7226C157.519 23.6808 158.488 23.4994 161.197 24.1831C164.385 24.9784 165.036 26.4155 165.726 27.9503C166.231 29.0665 166.802 30.3222 168.21 30.9919C169.206 31.4662 170.162 31.4802 171.105 31.2988C171.304 31.257 171.504 31.2151 171.743 31.2151C172.619 31.2151 174.08 32.0104 176.072 33.587C179.95 36.6426 183.735 36.517 185.608 33.6986C186.697 32.0662 186.936 29.7918 186.232 27.7548C186.166 27.5455 186.126 27.2804 186.405 26.8618C186.976 26.0107 188.596 25.0899 190.443 25.0899C191.186 25.0899 192.262 25.2434 193.152 25.9689C195.728 28.0757 198.544 28.1873 201.798 28.3268C202.263 28.3408 202.754 28.3687 203.246 28.3966L205.437 71.3155V71.3294L205.942 79.7428H202.741C202.276 79.7428 201.891 80.1474 201.891 80.6358V81.5147C192.236 76.5199 169.857 64.3115 169.631 64.1858C169.339 64.0183 168.98 64.0602 168.714 64.2695C166.948 65.7066 163.641 67.9809 162.22 67.9809C161.41 67.9809 160.042 67.1298 158.727 66.3206C156.894 65.1905 155.075 64.0045 153.268 64.0743C152.524 64.1161 152.272 63.558 151.674 62.2046C151.05 60.7955 150.214 58.87 147.942 58.7166C146.322 58.6049 144.941 57.8934 144.17 56.7214C143.36 55.5075 143.201 53.8472 143.719 51.9216C146.003 43.4525 145.259 40.9411 144.409 38.0251C144.117 37.0484 143.852 35.9881 143.652 34.6765C144.25 34.4951 145.166 34.2022 146.322 33.8673C147.836 33.4069 148.181 31.5512 148.487 29.9047C148.659 28.9978 148.898 27.6305 149.297 27.5189C151.17 26.9468 152.419 25.341 152.91 23.0111ZM140.917 8.44487C141.023 6.46362 141.223 4.94282 141.78 3.91046C143.64 3.3384 145.22 3.21285 146.92 4.46855C148.58 5.71033 149.497 7.09162 149.643 8.59828C149.802 10.2028 149.032 11.5283 148.554 12.0585C148.341 12.2957 148.129 12.491 147.916 12.7003C147.159 13.4119 146.137 14.3885 146.19 15.9651C146.243 17.4999 147.332 18.9788 149.922 21.0717C150.44 21.4903 150.878 21.7833 151.316 22.0903C151.051 24.0715 150.201 25.3831 148.82 25.8018C147.412 26.2064 147.093 27.9923 146.801 29.555C146.602 30.6433 146.349 31.9967 145.845 32.1501C144.848 32.4431 143.998 32.7082 143.388 32.8896C143.002 30.3224 141.581 23.8065 136.893 19.9418C135.764 19.007 135.166 18.1978 135.193 17.5978C135.219 16.7886 136.388 15.9793 137.504 15.198C138.673 14.3887 139.868 13.5377 140.346 12.3656C140.771 11.3052 140.837 9.92399 140.917 8.44487ZM114.753 6.68686C116.201 6.12876 117.396 5.66832 118.166 5.47302C122.988 4.23124 127.171 4.44055 133.506 5.44511C135.87 5.82183 137.889 5.24978 139.655 4.62192C139.376 5.82183 139.297 7.13333 139.23 8.33338C139.164 9.64492 139.098 10.8867 138.779 11.668C138.513 12.3517 137.517 13.0353 136.574 13.705C135.1 14.7375 133.573 15.8118 133.506 17.5279C133.466 18.7557 134.237 20.0114 135.857 21.3508C141.09 25.662 141.833 34.0336 141.847 34.1172V34.1451C142.046 36.0287 142.444 37.3681 142.79 38.5541C143.6 41.3028 144.237 43.4793 142.086 51.4323C141.249 54.5576 142.006 56.5946 142.79 57.7526C143.865 59.3571 145.712 60.3477 147.85 60.4873C149.045 60.571 149.51 61.4639 150.148 62.9289C150.453 63.6265 150.798 64.4079 151.316 64.9799C145.207 68.2169 135.127 74.8024 131.74 77.1884L130.624 77.9697C127.357 80.2858 124.78 82.1137 119.72 83.146C115.962 83.9273 115.151 82.8669 114.116 81.5135C113.704 80.9833 113.239 80.3695 112.588 79.8671C111.845 79.2951 110.171 77.6208 108.232 75.6814C104.779 72.2212 100.476 67.9098 97.4081 65.7192C93.0252 62.6078 74.5642 45.4881 71.7752 42.8932C71.7752 42.5584 71.7088 42.1816 71.483 41.8189C71.4697 41.791 71.4299 41.7631 71.4166 41.7352C71.5096 40.898 71.7354 38.9028 71.8549 37.7447C71.9877 36.2937 75.9322 35.4426 78.5488 34.8845C80.0363 34.5636 81.4574 34.2567 82.3871 33.866C84.0738 33.1405 86.3049 31.9545 88.2708 30.9081C89.5325 30.2384 90.6348 29.6384 91.3387 29.3175C92.9723 28.5641 94.7254 26.4015 96.0137 24.8249C96.2794 24.504 96.5184 24.211 96.7309 23.9598C97.0231 23.611 98.2715 23.7366 99.188 23.8343C100.742 24.0017 102.508 24.1831 103.531 22.9971C104.607 21.7414 104.022 20.2904 103.504 19.0067C103.039 17.8626 102.561 16.6627 102.814 15.2813C103.278 12.8396 102.668 11.5698 101.698 10.4118C106.227 9.93747 111.26 8.02639 114.753 6.68686ZM63.3009 36.5172C70.4994 34.0476 70.9641 30.4201 71.3759 27.2248C71.4954 26.2899 71.6017 25.4249 71.8806 24.5319C73.0892 20.5972 74.2579 17.9184 79.1719 16.6211C83.2359 15.5468 86.2374 11.5563 88.1366 8.64025C88.814 7.60778 89.053 7.4264 89.1726 7.39847C89.6773 7.39847 90.8859 7.9426 92.4265 8.62628C93.157 8.94718 93.9937 9.32389 94.9632 9.74247C96.2249 10.2727 97.7257 10.5517 99.4257 10.5657C99.4655 10.6075 99.5187 10.6773 99.5585 10.7191C100.913 12.1423 101.524 12.7841 101.112 14.9746C100.741 16.9 101.391 18.4766 101.896 19.7462C102.414 21.0298 102.534 21.4902 102.228 21.839C101.776 22.3553 100.462 22.2158 99.3062 22.1041C97.8319 21.9507 96.2913 21.7972 95.4281 22.8157C95.2023 23.0668 94.9633 23.3738 94.6844 23.7087C93.5688 25.076 91.8953 27.141 90.6203 27.7269C89.9032 28.0618 88.761 28.6618 87.4727 29.3594C85.5336 30.3918 83.3424 31.5638 81.7219 32.2615C80.9383 32.5963 79.6102 32.8893 78.189 33.1823C74.5367 33.9636 70.4061 34.8426 70.1405 37.6053C70.0608 38.4564 69.9147 39.7539 69.8085 40.7027C69.2507 40.5213 68.5866 40.3958 67.7632 40.3679C65.2397 40.2702 60.1795 39.8377 56.9787 39.5447C58.1608 38.582 59.9406 37.6752 63.3009 36.5172ZM41.1213 60.0129C42.994 58.1712 44.9198 56.2875 45.8759 53.6647C46.9118 50.8463 48.572 49.2417 50.3384 47.5398C51.454 46.4655 52.6095 45.3632 53.6188 43.9262C54.0438 43.3402 54.3891 42.796 54.7212 42.2798C54.9735 41.8891 55.2126 41.5263 55.4649 41.1776C58.347 41.4427 64.7088 42.0287 67.7104 42.1403C69.5565 42.21 69.9682 42.6844 70.0744 42.8937C70.0611 42.9216 70.0744 42.9635 70.0611 42.9914C70.0479 43.0193 70.0213 43.0332 70.0213 43.0611L68.8924 48.3213H56.9261C56.5276 48.3213 56.1823 48.6143 56.1026 49.019L53.9511 59.4554L49.5019 62.0506C49.2495 62.1901 49.0901 62.4691 49.0636 62.7621L48.5987 69.2082L35.7824 67.785C36.7121 64.3388 38.9565 62.1338 41.1213 60.0129ZM35.716 76.2118C35.2379 74.4538 34.7863 72.7655 35.3972 69.5425L49.3026 71.0912H49.3955C49.5947 71.0912 49.7807 71.0214 49.9401 70.8819C50.1127 70.7284 50.2323 70.5052 50.2455 70.268L50.7369 63.3755L55.1199 60.8222C55.3324 60.6966 55.4785 60.4734 55.5316 60.2362L57.6167 50.1069H69.5698C69.9682 50.1069 70.3135 49.8139 70.3932 49.4093L71.3495 44.9306C73.2487 46.6886 77.3525 50.4837 81.7752 54.5159H77.2063C76.7415 54.5159 76.3696 54.9066 76.3563 55.3949L75.6391 94.7419C75.6391 95.007 75.7454 95.2721 75.9446 95.4395L76.8743 96.2627L76.1969 98.8858C73.4079 98.7602 63.1947 98.3277 62.3181 98.3277C61.6275 98.3277 61.6142 98.3277 60.4853 98.3835L58.0416 98.4812C56.2353 98.5509 55.7572 98.1882 55.1861 97.7557C54.6682 97.365 54.0307 96.8906 52.6892 96.7651C50.5642 96.5697 49.9533 98.1882 49.5017 99.3602C49.3955 99.6393 49.276 99.8904 49.1564 100.142C48.4791 98.5231 47.4166 96.8906 45.8095 95.6628C44.2158 94.435 43.2462 93.3607 42.3963 92.398C41.3471 91.2121 40.4307 90.1935 38.8902 89.7191C37.2699 89.2169 35.9152 89.8029 34.6137 90.361C34.4145 90.4447 34.2152 90.5144 34.016 90.5982C35.8356 86.7752 36.5527 83.3709 36.3402 79.6316C36.2871 78.3201 35.9949 77.2442 35.716 76.2118ZM29.288 105.526C29.9653 105.623 30.6825 105.651 31.2403 105.526C32.0372 105.344 32.6083 104.981 33.1262 104.661C33.9762 104.102 34.6004 103.712 36.3137 104.326L36.9645 104.549C38.638 105.135 41.4536 106.112 41.5865 107.311C41.6131 107.493 41.5732 107.549 41.5732 107.549C41.281 107.884 39.4084 107.507 38.7178 107.381L38.4389 107.325C37.9342 107.228 37.456 107.06 36.9912 106.907C35.7428 106.474 34.3349 105.986 33.1397 107.116C32.3694 107.842 31.453 107.8 30.0584 107.646C29.7662 106.935 29.4872 106.223 29.288 105.526ZM30.9481 109.53C30.9481 109.516 30.9348 109.516 30.9348 109.502C31.0676 109.502 31.1872 109.53 31.3067 109.53C32.3294 109.53 33.3653 109.307 34.2817 108.428C34.6934 108.037 35.2645 108.177 36.4598 108.595C36.9911 108.777 37.5489 108.972 38.1333 109.083L38.4122 109.139C39.9926 109.446 41.7856 109.795 42.7417 108.86C43.0472 108.567 43.3792 108.023 43.273 107.116C43.0206 104.786 39.9527 103.712 37.4957 102.861L36.8582 102.638C34.4145 101.772 33.259 102.498 32.2495 103.126C31.798 103.405 31.4128 103.656 30.8816 103.782C30.43 103.879 29.6464 103.796 28.9027 103.642C28.7167 102.149 28.9159 100.866 29.7659 100.098C32.5683 97.6147 32.887 95.5638 33.1526 93.75C33.2058 93.4012 33.2722 93.0663 33.3386 92.7315C34.0292 92.5501 34.6933 92.2989 35.2776 92.0478C36.4065 91.5594 37.3761 91.1408 38.4386 91.4618C39.5409 91.8106 40.1917 92.5361 41.1878 93.6523C42.0511 94.615 43.1136 95.8149 44.8401 97.1404C48.1471 99.6797 48.6783 104.13 48.2533 105.135C47.7752 106.265 48.5322 107.326 49.2627 108.344C49.8205 109.14 50.458 110.032 50.3651 110.73C50.3119 111.121 50.1924 111.539 50.0862 111.93C50.0596 112.042 50.0198 112.167 49.9932 112.279C47.1643 112.725 46.0621 112.07 44.8269 111.302C43.8706 110.716 42.7949 110.046 40.9886 109.851C37.3894 109.446 35.1583 109.642 31.8909 111.065C31.5589 110.535 31.2137 110.018 30.9481 109.53ZM32.8341 112.53C35.5036 111.4 37.3231 111.274 40.2981 111.567C40.1121 112.251 40.1254 112.99 40.1653 113.576C40.2317 115.027 40.1121 115.041 39.7934 115.083C38.0004 115.292 36.9778 115.739 36.0744 116.785C34.919 115.376 33.8169 113.939 32.8341 112.53ZM43.2731 125.98C42.4496 124.487 40.8692 122.561 38.5185 119.757C38.0802 119.241 37.6287 118.683 37.1771 118.138C37.8279 117.301 38.5053 117.036 39.9662 116.869C42.0115 116.632 41.9052 114.595 41.8521 113.492C41.799 112.571 41.8255 112.111 42.0115 111.888C42.7685 112.125 43.3529 112.474 43.9505 112.85C45.0529 113.534 46.1818 114.232 48.2801 114.232C48.7317 114.232 49.2363 114.19 49.7809 114.12C49.8207 114.469 49.9137 114.818 50.1395 115.125C50.684 115.892 51.7067 116.241 53.3668 116.255H53.4067C56.1692 116.255 57.8294 115.208 58.9317 114.511C59.5028 114.148 59.9278 113.911 60.1137 113.869C60.8708 114.427 62.5575 119.296 63.766 123.705C63.6863 123.789 63.6066 123.859 63.5269 123.943C62.6902 125.045 62.398 126.607 62.823 127.821C62.9426 128.156 63.0887 128.547 63.2613 128.965C63.5801 129.761 64.2441 131.407 64.2309 131.7C63.3012 131.895 61.1098 132.788 60.7911 136.821C60.7645 137.141 60.7114 137.407 60.6583 137.7C60.6184 137.783 60.5653 137.895 60.4192 137.965C60.1536 138.104 59.6755 138.02 59.0911 137.727C58.7989 137.588 58.6927 137.49 58.6661 137.49C58.6927 137.379 58.7989 137.141 58.8786 136.974C59.2239 136.262 59.7817 135.076 58.9849 133.584C57.9755 131.7 56.3419 130.947 54.4027 131.281C54.4558 128.351 52.9816 125.198 51.4144 124.166C49.6347 122.966 46.3674 123.343 43.2731 125.98ZM48.9708 137.225C44.3356 135.049 43.9371 130.207 43.9769 128.24C43.9769 128.073 43.9503 127.905 43.9238 127.738C46.6597 125.17 49.3957 124.919 50.5378 125.659C51.9057 126.566 53.6057 130.751 52.2643 133.291L49.9268 137.714C49.6081 137.546 49.3161 137.393 48.9708 137.225ZM63.8723 149.113C63.8059 149.252 63.7528 149.419 63.6864 149.587C61.5614 149.057 59.8083 147.675 58.8519 146.406C58.4668 145.89 58.1082 145.401 57.7629 144.899C56.1691 142.667 54.6285 140.546 51.4276 138.565L53.7518 134.156C53.9245 133.821 54.0308 133.472 54.137 133.109C56.3948 132.356 57.2448 133.904 57.5237 134.435C57.869 135.062 57.6964 135.481 57.3776 136.151C57.1385 136.667 56.8331 137.295 57.0721 138.02C57.2979 138.718 57.9354 139.095 58.387 139.318C59.0245 139.625 59.5956 139.778 60.1268 139.778C60.1534 139.778 60.18 139.764 60.2065 139.764C59.9409 140.755 59.7018 141.69 59.994 142.708C60.2995 143.783 61.362 144.09 62.305 144.355C63.7393 144.759 64.4167 145.08 64.4964 146.21C64.5628 147.494 64.191 148.345 63.8723 149.113ZM78.4019 145.638C75.055 145.638 72.1466 146.517 69.7689 148.275C68.3877 149.294 66.9267 149.796 65.4261 149.824C65.7847 148.973 66.2894 147.801 66.1699 146.113C65.9972 143.587 64.0316 143.029 62.7301 142.652C62.3449 142.541 61.7074 142.359 61.6012 142.22C61.4418 141.648 61.6277 140.992 61.8668 140.085C62.0129 139.555 62.1723 138.913 62.2918 138.202C62.3184 138.132 62.3316 138.062 62.3449 138.034C62.3582 138.006 62.3316 137.978 62.3316 137.95C62.3848 137.63 62.4512 137.337 62.4777 136.974C62.6371 134.951 63.3809 133.709 64.5629 133.458C65.0277 133.36 65.3996 133.081 65.6121 132.663C66.1567 131.588 65.4793 129.9 64.8285 128.267C64.6691 127.877 64.523 127.514 64.4168 127.207C64.2043 126.579 64.3902 125.658 64.8551 125.044C65.0809 124.737 65.466 124.403 66.1965 124.5C68.0426 124.751 68.5738 124.751 71.2302 123.398C72.2263 122.882 72.4255 123.035 72.9036 123.398C73.3552 123.747 74.0192 124.235 75.2278 124.152H75.3208L75.3341 124.138H75.4271C75.9052 124.082 76.131 124.291 76.6622 125.17C77.2466 126.105 78.07 127.319 79.9427 127.347C80.6731 127.319 81.2708 127.235 81.8153 127.151C83.1833 126.928 84.0067 126.858 85.9725 128.435C85.9858 128.519 85.9991 128.616 86.0256 128.7C86.4639 130.932 86.9287 133.234 86.1717 134.337C85.2686 135.662 85.1225 136.778 84.9897 137.769C84.8701 138.676 84.7772 139.443 84.0998 140.448C82.599 142.652 83.3029 144.047 84.5912 146.559C82.8779 146.084 80.7394 145.638 78.4019 145.638ZM100.17 144.048C99.147 144.55 98.1509 145.094 97.2212 145.736C94.5119 147.62 92.5595 148.457 90.886 148.457C89.9165 148.457 88.9337 148.206 87.486 147.592C87.3134 147.522 87.1141 147.438 86.8884 147.355C86.5962 146.769 86.3306 146.238 86.0915 145.778C84.7899 143.253 84.5907 142.792 85.4673 141.522C86.3837 140.169 86.5298 139.039 86.6626 138.048C86.7821 137.155 86.8751 136.388 87.5391 135.425C88.7212 133.681 88.1899 130.988 87.6719 128.379C87.3798 126.942 87.0876 125.449 87.1407 124.305C87.1938 123.259 87.4196 122.589 87.8579 122.24C88.4423 121.78 89.5313 121.752 91.1915 122.156C93.3563 122.687 95.6938 122.338 97.407 122.073C97.5797 122.045 97.7258 122.031 97.8851 122.003C98.2039 123.538 98.8945 126.817 99.439 129.161C99.625 129.928 99.8109 130.556 99.9968 131.142C100.541 132.872 100.9 134.016 100.05 137.281C99.107 140.95 99.2931 142.36 100.17 144.048ZM104.486 137.225C104.154 139.15 103.875 140.978 104.021 142.569C103.251 142.792 102.481 143.043 101.737 143.35C100.993 141.983 100.847 140.978 101.697 137.727C102.68 133.946 102.215 132.453 101.617 130.556C101.445 130.012 101.259 129.426 101.099 128.714C100.581 126.524 99.9438 123.51 99.6118 121.891C100.475 122.031 101.644 122.826 102.348 123.412C102.52 124.193 102.866 125.017 103.304 125.951C103.968 127.319 104.712 128.867 104.964 130.737C105.243 132.746 104.858 135.02 104.486 137.225ZM109.945 141.132C109.958 141.285 109.958 141.453 109.971 141.62C108.51 141.69 107.076 141.843 105.695 142.15C105.615 140.853 105.881 139.248 106.16 137.56C106.558 135.216 106.97 132.802 106.651 130.5C106.359 128.337 105.509 126.579 104.831 125.17C104.367 124.221 103.981 123.412 103.928 122.812C103.902 122.533 103.942 122.31 104.234 122.045C104.951 121.417 105.655 120.984 106.346 120.58C107.541 119.868 108.67 119.184 109.44 117.65C109.852 116.826 110.263 116.38 110.715 116.296C111.153 116.199 112.003 116.422 113.478 117.691C113.491 117.873 113.451 118.068 113.478 118.236C113.69 119.631 114.022 121.654 114.792 123.524C109.414 131.114 109.653 135.997 109.945 141.132ZM121.898 147.899C120.57 145.457 118.909 142.415 115.443 141.885C114.168 141.69 112.92 141.62 111.658 141.592C111.645 141.397 111.645 141.201 111.631 141.02C111.352 136.178 111.167 131.923 115.682 125.24C116.32 126.216 117.103 127.068 118.179 127.612C119.653 128.365 121.526 128.798 123.359 128.798C125.444 128.798 127.476 128.226 128.804 126.9L129.442 126.258C131.062 124.612 131.739 123.928 133.878 123.872C134.913 123.942 136.029 124.5 137.224 125.184C138.579 125.965 140.093 126.788 141.687 126.677C142.245 127.821 142.524 129.105 142.138 130.639C141.156 134.504 142.178 136.75 143.347 139.346C143.586 139.862 143.825 140.42 144.064 141.006C141.727 141.732 140.093 142.569 138.898 143.476C138.353 142.82 137.503 142.22 136.321 142.331C135.405 142.387 134.595 142.973 133.864 143.49C133.599 143.671 133.24 143.936 133.014 144.048C132.51 142.541 130.982 140.922 129.389 140.908H129.375C128.698 140.908 127.489 141.215 126.799 143.197C125.922 145.708 124.315 147.801 122.522 148.987C122.323 148.624 122.123 148.303 121.898 147.899ZM135.67 150.117C134.156 149.712 132.124 150.033 129.282 150.647C128.22 150.87 127.011 151.136 125.656 151.387C124.767 151.554 124.129 151.177 123.505 150.438C125.577 149.029 127.396 146.629 128.392 143.796C128.645 143.057 128.99 142.68 129.375 142.68C130.066 142.68 131.075 143.643 131.407 144.634C131.62 145.248 131.952 145.638 132.417 145.792C133.227 146.071 133.997 145.541 134.807 144.955C135.352 144.564 135.963 144.131 136.414 144.103C137.012 144.076 137.384 144.355 137.61 144.62C136.135 146.294 135.803 148.164 135.67 150.117ZM138.938 152.921C138.513 152.335 137.995 151.68 137.304 151.066C137.49 147.424 137.702 144.787 144.715 142.638C145.1 142.513 145.299 142.666 145.87 143.434C146.256 143.95 147.159 145.178 148.381 144.257C148.978 143.796 149.483 142.75 150.413 140.755C151.422 138.592 152.803 135.634 154.065 134.951C155.792 134.016 156.456 131.546 157.093 129.16C157.505 127.612 157.943 126.007 158.581 125.296C159.165 124.64 159.922 124.096 160.719 123.51C161.569 122.896 162.472 122.198 163.229 121.347C163.627 123.161 164.092 124.738 164.424 125.756C162.565 125.882 159.351 126.468 159.245 128.993C159.178 130.556 160.626 132.063 162.299 133.807C163.906 135.481 165.713 137.365 165.62 138.9C165.606 139.067 165.699 139.207 165.766 139.346C162.817 141.369 161.303 144.941 161.689 149.42C162.18 155.084 166.164 158.977 168.807 160.972C168.728 161.363 168.675 161.754 168.622 162.102C168.449 163.358 168.329 164.084 167.745 164.391C167.161 164.628 164.584 163.442 163.615 162.995C162.579 162.521 162.061 162.284 161.689 162.242C161.609 162.228 161.476 162.2 161.33 162.172C160.308 161.963 158.196 161.503 156.695 162.605C156.589 162.688 156.522 162.814 156.429 162.912H143.055C143.454 159.982 143.268 156.48 141.05 155.084C140.04 154.429 139.535 153.731 138.938 152.921ZM147.026 164.697V168.381H141.607C141.727 167.85 141.833 167.404 141.939 167.223C142.178 166.762 142.484 165.827 142.749 164.683L147.026 164.697ZM147.81 190.467C147.345 189.784 146.946 189.198 146.614 188.765C145.937 187.872 144.954 186.714 143.865 185.458C142.271 183.603 139.084 179.905 138.552 178.384C139.881 176.933 140.492 174.143 141.182 170.473C141.195 170.376 141.222 170.264 141.235 170.167H147.876C148.341 170.167 148.726 169.762 148.726 169.274V164.697H155.433C155.38 164.879 155.3 165.032 155.26 165.228C155.008 167.014 155.141 167.976 155.725 168.548C156.389 169.204 157.292 169.009 158.169 168.813C158.435 168.758 158.714 168.688 159.006 168.646C159.71 168.534 160.453 169.12 160.653 169.692C160.732 169.93 160.759 170.25 160.254 170.571C158.767 171.52 158.063 172.497 158.103 173.557C158.142 174.618 158.926 175.524 160.48 176.32C162.446 177.338 160.294 182.138 159.497 183.896C159.351 184.217 159.258 184.328 159.271 184.342C159.205 184.342 159.019 184.301 158.886 184.273C158.381 184.161 157.598 183.966 156.522 184.245C156.257 184.301 156.177 184.328 155.765 183.449C155.473 182.794 155.021 181.817 153.946 181.817C153.042 181.817 152.471 182.222 151.821 182.682C151.276 183.059 150.599 183.547 149.417 184.063C148.726 184.37 148.248 184.831 148.035 185.445C147.624 186.575 148.181 187.803 148.66 188.905C148.872 189.379 149.271 190.272 149.204 190.579C149.124 190.579 148.899 190.551 148.739 190.523C148.5 190.481 148.168 190.439 147.81 190.467ZM152.856 198.755C152.485 198.085 152.113 197.443 151.728 196.788C152.578 196.16 153.56 195.699 154.344 195.797C153.189 196.592 152.87 197.694 152.856 198.755ZM150.851 195.281C150.214 194.22 149.616 193.244 149.045 192.351C149.629 192.379 150.36 192.225 150.758 191.221C151.143 190.258 150.665 189.184 150.2 188.151C149.868 187.426 149.47 186.519 149.616 186.1C149.669 185.961 149.815 185.835 150.067 185.723C151.409 185.137 152.192 184.579 152.764 184.175C153.361 183.756 153.574 183.617 153.866 183.589C153.959 183.658 154.118 184.021 154.211 184.23C154.556 184.998 155.207 186.407 156.881 185.988C157.598 185.807 158.049 185.919 158.501 186.03C159.417 186.24 160.294 186.295 161.104 184.482C162.087 182.305 164.69 176.515 161.21 174.729C160.174 174.199 159.803 173.724 159.789 173.487C159.776 173.25 160.121 172.734 161.117 172.106C162.206 171.422 162.631 170.264 162.233 169.106C161.742 167.669 160.174 166.664 158.753 166.888C158.421 166.943 158.103 167.013 157.797 167.083C157.465 167.153 156.974 167.278 156.907 167.292C156.894 167.278 156.721 166.957 156.934 165.52C157.027 164.837 157.266 164.376 157.664 164.083C158.568 163.427 160.201 163.776 160.985 163.944C161.197 163.986 161.357 164.027 161.476 164.041C161.675 164.083 162.379 164.404 162.937 164.669C165.394 165.799 167.373 166.623 168.502 166.023C169.923 165.283 170.135 163.734 170.308 162.381C170.507 160.888 170.707 159.479 172.141 158.489C173.535 157.526 175.86 157.777 177.719 157.972C178.556 158.056 179.273 158.126 179.884 158.098C179.804 159.521 179.592 160.958 178.967 161.656C177.108 163.749 176.617 169.302 176.617 172.26C176.617 175.008 172.898 179.682 170.401 182.152C169.139 183.394 169.033 186.073 168.94 188.444C168.9 189.393 168.86 190.677 168.701 191.095C167.546 191.625 166.231 192.435 164.929 194.835C164.292 195.993 163.163 196.23 162.831 196.258C162.273 196.327 161.941 196.188 161.914 196.174C161.662 195.239 160.998 194.57 160.174 194.416C159.404 194.277 158.634 194.611 158.009 195.351C157.651 195.072 157.12 194.904 156.336 195.03C155.831 194.5 155.234 194.109 154.463 194.039C153.295 193.942 151.967 194.499 150.851 195.281ZM154.703 200.373C154.41 198.657 154.317 197.569 155.924 196.969C156.921 196.592 157.067 196.802 157.146 196.913C157.253 197.081 157.518 197.471 158.036 197.471H158.049C158.621 197.471 158.966 196.969 159.192 196.648C159.431 196.299 159.683 196.118 159.882 196.146C160.055 196.174 160.214 196.369 160.281 196.648C160.48 197.388 161.171 197.904 162.1 198.029C163.468 198.211 165.407 197.541 166.403 195.699C167.492 193.69 168.488 193.104 169.511 192.644C170.494 192.197 170.56 190.732 170.64 188.5C170.706 186.672 170.813 184.189 171.556 183.435C171.835 183.17 178.303 176.71 178.303 172.231C178.303 168.715 178.967 164.237 180.203 162.855C181.424 161.474 181.61 159.005 181.624 156.884V156.786C181.624 156.298 181.624 155.795 181.61 155.377L181.597 154.54C181.597 153.172 183.403 150.856 184.785 150.856C185.17 150.856 185.701 151.428 186.259 152.028C187.414 153.27 188.981 154.972 191.85 154.972C193.59 154.972 194.506 155.195 195.184 155.363C196.22 155.614 196.857 155.712 197.946 154.693L198.504 154.149C199.606 153.075 200.058 152.642 201.399 153.131C203.059 153.744 204.016 152.977 204.786 152.349C205.277 151.959 205.742 151.582 206.459 151.428C207.137 151.289 207.615 151.275 208.04 151.261C209.076 151.233 209.766 151.135 210.683 149.935C211.015 149.503 212.263 150.019 213.18 150.41C213.91 150.717 214.601 151.024 215.199 151.038C215.398 151.052 215.65 151.052 215.916 151.052C217.124 151.08 219.382 151.052 220.086 152.279C220.989 153.856 223.287 153.563 225.532 153.298C226.82 153.145 228.4 152.949 228.905 153.298C229.476 153.689 229.968 154.54 230.459 155.363C231.15 156.535 231.946 157.749 233.155 157.986C233.248 159.465 233.885 160.623 234.403 161.474C234.948 162.381 235.161 162.8 234.988 163.176C234.749 163.679 234.032 164.376 233.261 165.116C231.628 166.692 229.596 168.66 229.038 171.394C228.573 173.654 228.427 175.845 228.321 177.449C228.254 178.468 228.188 179.417 228.108 179.696C228.068 179.724 227.949 179.78 227.869 179.821C226.953 180.254 225.93 180.965 225.226 183.895C224.748 185.863 224.934 186.63 225.319 187.37C225.332 187.384 225.319 187.384 225.332 187.397C225.332 187.411 225.346 187.397 225.346 187.411C225.385 187.481 225.412 187.551 225.452 187.621C225.744 188.137 226.103 188.779 225.85 191.402C225.266 197.178 225.266 201.489 227.006 205.145C227.723 206.666 228.6 207.615 229.357 208.466C230.193 209.401 230.778 210.098 230.964 211.228C226.608 211.898 223.592 214.228 222.716 215.958C222.171 217.046 222.464 217.772 222.689 218.107C223.486 219.335 223.486 222.418 223.486 223.897C223.486 224.246 223.446 224.692 223.42 225.167C223.274 227.092 223.075 229.743 224.482 231.222C225.678 232.478 227.285 231.808 228.254 231.417C228.294 231.389 228.347 231.375 228.387 231.361C228.4 231.696 228.427 232.045 228.454 232.408C228.507 233.287 228.586 234.431 228.493 235.101C228.028 234.961 227.311 234.822 226.342 235.184C225.943 235.338 225.85 235.352 225.319 234.026C224.841 232.827 224.111 231.027 222.012 230.831C220.538 230.706 219.94 229.729 219.356 228.808C218.904 228.083 218.32 227.148 217.324 227.329C216.846 227.399 216.447 227.58 216.062 227.762C215.252 228.138 214.322 228.571 212.078 228.125C210.032 227.706 208.598 226.701 207.429 225.878C206.646 225.334 205.968 224.86 205.264 224.664C204.892 224.567 204.441 224.525 203.963 224.525C203.949 224.525 203.949 224.511 203.936 224.511C203.923 224.511 203.923 224.525 203.91 224.525C202.781 224.525 201.413 224.748 199.793 225.027C199.089 225.139 198.358 225.264 197.601 225.376C197.362 225.418 197.189 225.432 197.07 225.432C197.11 225.306 197.163 225.153 197.203 225.027C197.442 224.329 197.761 223.478 197.654 222.544C197.495 220.995 196.539 220.13 195.901 219.558C195.729 219.404 195.503 219.209 195.476 219.237V208.131C195.476 207.642 195.104 207.252 194.639 207.238C194.639 207.238 192.076 207.182 190.004 207.182C189.911 207.182 189.832 207.182 189.778 207.168C189.539 206.261 188.703 205.968 187.547 205.815C186.272 205.647 185.329 205.842 184.639 206.415C183.682 207.21 183.563 208.493 183.47 209.345C183.39 210.154 181.717 211.284 177.56 211.075C176.51 211.019 175.634 210.572 174.89 209.693C173.283 207.796 172.885 204.615 172.911 204.085C172.978 203.275 172.991 202.117 172.274 201.294C171.822 200.778 171.171 200.499 170.361 200.499L154.716 200.513C154.716 200.457 154.716 200.415 154.703 200.373ZM152.538 247.421C153.428 245.663 154.424 243.654 154.251 240.598C154.131 238.352 155.606 236.65 157.319 234.668C159.763 231.864 162.791 228.362 160.307 222.753C158.448 218.54 158.554 217.2 158.7 215.665C158.82 214.326 158.953 212.805 158.103 210.029C157.465 207.894 156.19 205.131 154.729 202.285H170.361C170.667 202.285 170.893 202.355 171.012 202.494C171.211 202.718 171.278 203.192 171.211 203.917C171.145 204.671 171.583 208.438 173.549 210.81C174.611 212.094 175.926 212.777 177.467 212.847C184.306 213.168 185.064 210.377 185.156 209.512C185.223 208.745 185.329 208.103 185.688 207.796C186.06 207.475 186.777 207.489 187.321 207.573C187.826 207.643 188.078 207.713 188.131 207.713C188.304 208.94 189.433 208.94 189.991 208.94C191.319 208.94 192.846 208.968 193.763 208.982V219.209C193.763 219.963 194.281 220.423 194.772 220.884C195.303 221.372 195.848 221.874 195.941 222.725C195.994 223.242 195.768 223.856 195.582 224.386C195.317 225.125 195.024 225.962 195.529 226.632C196.034 227.302 196.964 227.26 197.8 227.134C198.571 227.023 199.301 226.897 200.018 226.772C201.107 226.59 202.156 226.423 203.046 226.353V230.887C203.046 233.706 200.842 234.124 199.527 234.124H194.918C194.453 234.124 194.068 234.529 194.068 235.017V249.416C194.068 250.197 194.759 250.993 196.897 253.267C197.255 253.657 197.627 254.048 197.986 254.439C193.815 255.653 186.471 255.946 183.735 255.946C183.456 255.946 183.098 255.722 182.659 255.429C181.823 254.899 180.694 254.16 178.861 254.16H161.29C160.626 254.16 160.466 253.95 160.108 253.504C159.603 252.876 158.912 251.997 156.973 251.997C155.446 251.997 154.476 252.178 153.454 252.36C152.829 252.471 152.165 252.583 151.342 252.667C151.036 250.434 151.728 249.04 152.538 247.421ZM171.371 303.524C170.76 302.645 170.122 301.78 169.392 300.984C168.728 300.273 168.25 299.757 166.828 297.147C166.31 296.199 166.204 294.636 166.098 292.99C165.952 290.841 165.792 288.399 164.69 286.111C163.907 284.479 163.986 283.725 164.132 282.483C164.265 281.353 164.425 279.958 163.986 277.837C163.442 275.186 161.782 272.466 159.471 268.726C157.731 265.894 155.553 262.378 153.189 257.774C152.524 256.476 152.086 255.388 151.781 254.425C152.551 254.341 153.175 254.23 153.746 254.118C154.729 253.937 155.592 253.783 156.974 253.783C158.116 253.783 158.382 254.132 158.793 254.634C159.232 255.178 159.829 255.932 161.29 255.932H178.861C180.216 255.932 181.013 256.448 181.77 256.936C182.368 257.313 182.979 257.718 183.736 257.718C183.842 257.718 194.998 257.69 199.833 255.681C202.595 254.551 203.684 254.941 204.733 255.318C205.265 255.513 205.836 255.723 206.54 255.737C206.872 255.751 207.27 256.099 207.668 256.602C204.468 256.532 202.595 257.299 201.732 257.843L200.417 256.783C200.231 256.644 200.005 256.574 199.779 256.602L189.792 258.053C189.367 258.122 189.061 258.485 189.061 258.932V275.228H185.555C185.09 275.228 184.705 275.633 184.705 276.121V303.538C184.187 303.761 183.377 304.165 182.474 304.71C180.681 305.812 177.427 307.235 175.873 304.472C174.957 302.868 173.947 302.156 172.898 302.296C172.473 302.393 171.902 302.742 171.371 303.524ZM233.873 304.905C232.146 306.272 229.716 308.909 225.705 313.29C223.939 315.202 221.88 317.448 219.45 320.043C213.5 326.405 210.206 326.405 208.971 326.405L208.054 326.392C207.829 326.392 207.523 326.405 207.218 326.461C206.501 326.629 205.876 327.033 205.265 327.438C204.296 328.08 203.313 328.694 202.158 328.289C200.59 327.759 198.319 327.675 197.097 327.675C193.684 327.675 189.036 328.261 186.207 329.922C184.095 331.163 183.444 330.982 181.479 329.433L180.801 328.903C178.464 327.145 178.703 325.443 179.287 322.848C179.447 322.15 179.593 321.494 179.646 320.88C179.872 318.662 178.464 316.974 177.216 315.495C176.392 314.518 175.542 313.514 175.369 312.593C174.971 310.528 173.922 307.821 172.408 305.198C172.713 304.472 173.019 304.11 173.205 304.082C173.351 303.984 173.842 304.305 174.453 305.393C175.369 307.026 176.817 307.849 178.583 307.849C179.991 307.849 181.625 307.319 183.365 306.272C184.706 305.449 185.875 305.003 185.888 305.003C186.22 304.877 186.446 304.542 186.446 304.166V290.66C187.296 291.329 188.039 292.46 188.013 293.422C187.986 294.036 187.721 294.636 187.482 295.166C187.176 295.836 186.897 296.464 187.15 297.106C187.243 297.357 187.468 297.678 187.947 297.873C188.385 298.041 189.328 298.25 190.497 298.25C192.475 298.25 195.079 297.636 196.792 295.097C197.629 293.841 198.12 292.948 198.452 292.348C198.944 291.455 198.944 291.455 199.568 291.455C199.82 291.455 199.82 291.455 200.006 291.762C200.497 292.557 201.161 293.325 203.326 293.325C203.964 293.325 204.548 293.339 205.079 293.339C207.483 293.381 208.785 293.394 209.635 292.571C210.007 292.209 210.219 291.678 210.445 291.05C210.95 289.739 211.401 288.79 212.53 288.609C214.164 288.344 214.868 286.962 215.492 285.749C216.023 284.688 216.541 283.698 217.603 283.321C219.197 282.777 219.835 281.702 220.353 280.851C220.844 280.014 221.123 279.568 222.159 279.526C223.992 279.456 224.55 278.786 225.001 278.047C225.214 277.698 225.267 277.6 225.785 277.531C226.435 277.461 226.993 277.642 227.777 277.921C228.866 278.298 230.234 278.745 232.306 278.605C232.545 279.986 233.129 282.86 234.112 284.981C235.108 287.116 234.55 289.46 234.112 291.358L233.939 292.083C233.926 292.139 233.939 292.181 233.926 292.251C233.076 291.804 232.053 291.623 231.164 292.627L230.938 292.879C229.928 293.995 228.029 296.06 228.335 298.167C228.614 300.078 230.274 301.278 232.624 301.278H232.877C234.192 301.222 235.174 300.608 235.838 299.464C236.091 299.576 236.356 299.674 236.622 299.757C235.918 301.85 234.895 304.082 233.873 304.905ZM234.51 298.264C234.125 299.073 233.62 299.436 232.797 299.477C232.399 299.505 230.234 299.491 230.008 297.901C229.822 296.659 231.456 294.873 232.16 294.106L232.399 293.841C232.558 293.659 232.784 293.506 233.886 294.357C233.939 294.734 233.992 295.11 234.059 295.445C234.192 296.073 234.311 296.659 234.271 297.245C234.245 297.608 234.351 297.943 234.51 298.264ZM274.671 241.604L274.645 243.641C274.591 247.715 268.004 251.148 264.537 252.389C261.748 253.38 255.466 258.751 249.676 263.858L248.905 264.541C246.462 266.69 247.498 270.946 248.494 275.062C248.972 277.029 249.463 279.052 249.37 280.21C249.317 280.908 249.291 281.591 249.277 282.233C249.184 285.191 249.065 286.168 247.139 286.935C239.701 289.879 237.351 292.042 237.47 295.809C237.483 296.297 237.35 297.106 237.125 298.027C236.633 297.874 236.195 297.65 235.969 297.357C236.022 296.52 235.876 295.781 235.717 295.055C235.544 294.204 235.372 293.395 235.584 292.474L235.743 291.776C236.222 289.712 236.886 286.893 235.624 284.186C234.641 282.08 234.083 278.996 233.897 277.922C234.362 277.35 235.398 276.094 236.381 275.145C238.161 273.429 238.971 272.229 239.09 271.141C239.21 270.122 239.608 269.439 240.339 269.034C241.003 268.671 241.508 268.016 241.747 267.178C242.079 266.062 241.933 264.765 241.388 263.69C240.963 262.867 241.375 260.551 242.61 256.812C243.128 255.249 242.902 253.463 241.999 252.04C241.282 250.91 240.259 250.212 239.21 250.157C238.108 250.087 236.182 248.747 235.252 247.91C235.079 247.757 234.867 247.687 234.654 247.701L232.051 247.868V246.362C232.051 246.306 232.011 246.278 231.998 246.236C231.985 246.18 232.025 246.138 232.011 246.097C231.812 245.455 231.6 244.952 231.4 244.534C231.281 244.269 231.135 243.934 231.108 243.92C231.148 243.864 231.347 243.641 232.463 243.18C234.973 242.148 241.295 240.209 242.995 239.692C243.141 239.818 243.287 239.943 243.433 240.111C244.137 240.85 245.094 241.883 246.966 241.674C247.352 241.618 247.67 241.799 247.896 242.19C248.334 242.943 248.401 244.408 247.498 245.887C246.82 247.004 246.714 248.217 247.192 249.403C247.883 251.106 249.636 252.333 250.592 252.529C250.685 252.557 250.791 252.557 250.884 252.557C251.827 252.557 252.359 251.496 252.823 250.561C253.142 249.92 253.62 248.957 254.032 248.887C255.798 248.552 255.559 246.459 255.413 245.092C255.334 244.381 255.241 243.627 255.347 243.139C255.679 241.562 254.577 240.348 253.594 239.679C253.607 239.037 253.368 238.479 253.102 237.851C252.744 237 252.305 235.953 252.093 234.056C251.827 231.656 252.491 230.219 253.089 228.949C253.302 228.475 253.501 228.014 253.647 227.54C254.298 227.331 255.001 227.107 255.599 227.107C256.343 227.107 256.768 227.345 257.299 227.638C257.95 228 258.747 228.447 260.115 228.447C261.31 228.447 262.266 227.931 263.183 227.442C264.259 226.87 265.374 226.27 267.127 226.27C269.89 226.27 272.573 224.833 274.339 223.494C274.91 226.689 274.738 237.348 274.671 241.604ZM273.25 221.261C273.396 221.485 273.489 221.638 273.609 221.847C272.095 223.047 269.611 224.47 267.141 224.47C264.989 224.47 263.568 225.238 262.426 225.838C261.589 226.298 260.912 226.647 260.128 226.647C259.185 226.647 258.681 226.368 258.11 226.047C257.485 225.698 256.768 225.308 255.613 225.308C254.683 225.308 253.727 225.628 252.956 225.88C252.717 225.963 252.412 226.061 252.173 226.117C252.199 221.261 250.858 219.559 249.782 218.192L249.543 217.871C248.985 217.131 248.268 216.95 247.551 216.908C247.538 216.908 247.538 216.894 247.524 216.894C247.511 216.894 247.498 216.908 247.485 216.908C247.166 216.894 246.847 216.908 246.542 216.922C245.652 216.992 244.735 217.048 243.673 216.517C243.062 216.21 242.478 215.89 241.906 215.597C240.021 214.592 238.387 213.727 236.873 213.532C236.78 213.518 236.7 213.448 236.62 213.42C236.249 212.025 235.97 210.853 235.744 209.876C235.213 207.518 234.854 205.955 233.539 204.128C233.127 203.556 232.795 203.137 232.53 202.816C231.786 201.881 231.786 201.881 231.706 200.012C231.653 198.7 231.268 197.124 230.644 195.617C234.522 192.073 236.036 189.715 235.505 188.013C235.266 187.259 234.841 186.645 234.495 186.143C234.376 185.948 234.19 185.696 234.097 185.529C234.137 185.501 234.177 185.487 234.23 185.459C235.173 185.083 235.558 184.399 235.717 183.897C236.076 182.697 235.584 181.064 234.283 178.874C234.602 178.832 235.04 178.86 235.77 178.916C236.434 178.972 237.298 179.013 238.334 179.027C238.745 179.962 238.467 181.218 238.095 181.929C237.55 182.962 237.643 184.901 238.294 186.059C238.812 186.98 239.489 187.12 239.861 187.12C240.22 187.12 240.578 186.994 240.924 186.743C242.106 185.892 243.221 185.85 245.107 186.617C245.439 186.743 245.718 186.813 245.984 186.813C247.365 186.813 247.471 185.362 247.551 184.19C247.604 183.38 247.671 182.376 248.003 181.287L248.268 180.367C248.441 179.795 248.574 179.334 248.706 178.93L263.555 187.999V189.799C263.555 190.078 263.688 190.357 263.9 190.524L269.956 195.156C268.841 197.919 267.778 202.481 269.545 204.714C270.474 205.886 270.793 206.29 270.222 211.397C269.677 215.988 271.829 219.155 273.25 221.261ZM270.727 193.44C270.713 193.468 270.7 193.496 270.687 193.524L265.215 189.338V187.482C265.215 187.162 265.055 186.869 264.79 186.715L249.543 177.409C249.835 177.158 250.167 176.962 250.685 176.823C252.305 176.404 252.451 175.4 252.438 174.981C252.398 173.865 251.283 173.014 249.941 172.525C250.34 171.298 250.937 170.126 251.628 168.912C252.637 167.168 253.673 165.354 253.873 163.247C254.138 160.541 252.425 157.666 251.044 155.364C250.526 154.499 250.087 153.718 249.808 153.076C250.207 152.448 250.512 152.155 250.964 152.141C251.362 152.127 251.774 152.1 252.199 152.086C254.019 151.974 256.077 151.848 258.468 152.909C259.358 153.299 260.261 153.788 261.191 154.276C263.515 155.504 265.932 156.788 268.124 156.788H268.336C269.877 156.732 270.554 157.039 271.059 157.262C271.497 157.457 272.002 157.68 272.652 157.471C273.104 157.318 273.529 156.885 274.366 155.978C275.282 154.988 277.181 152.923 278.071 153.313L278.881 153.69C279.731 154.095 280.528 154.444 281.391 154.555C280.688 157.081 278.802 158.127 278.709 158.169C278.416 158.322 278.231 158.629 278.231 158.964V173.475C278.231 177.535 278.284 177.953 279.891 179.516C279.904 179.53 279.917 179.544 279.93 179.558C275.92 185.418 271.497 192.17 270.727 193.44ZM319.017 115.682C318.831 116.896 318.605 118.389 318.778 120.035C318.95 121.751 317.529 124.988 315.882 128.742C314.289 132.383 312.296 136.904 310.968 141.913C309.029 149.168 297.74 159.841 291.007 166.218C288.55 168.534 286.783 170.222 285.893 171.283C284.818 172.58 282.985 175.147 280.953 178.077C279.957 177.114 279.943 176.975 279.943 173.459V159.451C280.82 158.837 282.586 157.204 283.144 154.302C283.436 154.218 283.715 154.163 284.034 153.995C284.658 153.674 285.402 153.158 286.252 152.572C288.204 151.205 290.874 149.349 293.198 149.349H293.344C296.612 149.349 298.896 146.349 302.03 142.219C302.787 141.229 303.598 140.154 304.501 139.038C308.565 133.973 315.179 120.119 317.198 115.04C317.702 114.831 318.194 114.621 318.725 114.524C318.871 114.496 319.004 114.482 319.163 114.482C319.15 114.845 319.083 115.305 319.017 115.682ZM220.111 304.484C220.084 304.484 219.858 304.498 219.832 304.498C218.69 304.61 216.976 305.07 215.316 307.749C214.998 308.265 214.48 308.503 213.975 308.712C213.43 308.949 212.687 309.27 212.634 310.121C212.58 310.846 213.882 313.609 214.971 314.837C215.595 315.534 216.193 315.883 216.817 315.883C216.857 315.883 217.003 315.869 217.043 315.869C218.477 315.66 218.955 314.474 219.248 313.763C219.287 313.679 219.314 313.581 219.354 313.497C219.38 313.511 219.407 313.511 219.434 313.511C220.071 313.637 220.908 313.693 221.466 313.372C222.183 312.967 225.131 309.033 224.932 307.749C224.759 306.507 222.023 304.484 220.111 304.484ZM220.682 311.809C220.629 311.851 220.111 311.837 219.765 311.767C219.526 311.712 219.301 311.684 219.141 311.684C219.035 311.684 218.783 311.726 218.69 311.767C218.132 312.005 217.906 312.577 217.707 313.065C217.428 313.749 217.269 314.042 216.83 314.097C216.193 314.056 214.772 311.46 214.4 310.456C214.48 310.414 214.559 310.386 214.626 310.358C215.237 310.093 216.14 309.689 216.737 308.712C217.973 306.703 219.115 306.354 220.098 306.256C221.2 306.256 222.794 307.484 223.205 308.014C222.9 308.879 221.187 311.447 220.682 311.809Z" fill="#3E3E3E"/>
<path d="M351.044 230.803V211.203H357.68C359.229 211.203 360.499 211.465 361.488 211.987C362.477 212.51 363.205 213.21 363.672 214.087C364.157 214.946 364.4 215.926 364.4 217.027C364.4 218.073 364.157 219.043 363.672 219.939C363.205 220.817 362.468 221.526 361.46 222.067C360.452 222.59 359.164 222.851 357.596 222.851H353.844V230.803H351.044ZM361.348 230.803L357.12 222.095H360.2L364.596 230.803H361.348ZM353.844 220.723H357.484C358.865 220.723 359.883 220.387 360.536 219.715C361.189 219.025 361.516 218.147 361.516 217.083C361.516 216.001 361.199 215.142 360.564 214.507C359.929 213.873 358.903 213.555 357.484 213.555H353.844V220.723Z" fill="black"/>
<path d="M370.74 230.803L366.596 216.691H369.368L372.448 228.451L371.916 228.423L375.332 216.691H378.468L381.884 228.423L381.352 228.451L384.404 216.691H387.232L383.088 230.803H380.204L376.62 218.567H377.18L373.596 230.803H370.74Z" fill="black"/>
<path d="M393.861 231.139C392.704 231.139 391.743 230.943 390.977 230.551C390.212 230.159 389.643 229.637 389.269 228.983C388.896 228.311 388.709 227.593 388.709 226.827C388.709 225.894 388.952 225.101 389.437 224.447C389.923 223.775 390.613 223.262 391.509 222.907C392.405 222.553 393.479 222.375 394.729 222.375H398.397C398.397 221.554 398.276 220.873 398.033 220.331C397.791 219.79 397.427 219.389 396.941 219.127C396.475 218.847 395.877 218.707 395.149 218.707C394.309 218.707 393.591 218.913 392.993 219.323C392.396 219.715 392.023 220.303 391.873 221.087H389.073C389.185 220.098 389.521 219.258 390.081 218.567C390.66 217.858 391.397 217.317 392.293 216.943C393.189 216.551 394.141 216.355 395.149 216.355C396.475 216.355 397.585 216.589 398.481 217.055C399.377 217.522 400.049 218.185 400.497 219.043C400.964 219.883 401.197 220.891 401.197 222.067V230.803H398.761L398.537 228.423C398.332 228.797 398.089 229.151 397.809 229.487C397.529 229.823 397.193 230.113 396.801 230.355C396.428 230.598 395.989 230.785 395.485 230.915C395 231.065 394.459 231.139 393.861 231.139ZM394.393 228.871C394.991 228.871 395.532 228.75 396.017 228.507C396.503 228.265 396.913 227.938 397.249 227.527C397.604 227.098 397.865 226.622 398.033 226.099C398.22 225.558 398.323 225.007 398.341 224.447V224.363H395.009C394.207 224.363 393.553 224.466 393.049 224.671C392.564 224.858 392.209 225.119 391.985 225.455C391.761 225.791 391.649 226.183 391.649 226.631C391.649 227.098 391.752 227.499 391.957 227.835C392.181 228.153 392.499 228.405 392.909 228.591C393.32 228.778 393.815 228.871 394.393 228.871Z" fill="black"/>
<path d="M404.771 230.803V216.691H407.291L407.459 219.099C407.907 218.259 408.542 217.597 409.363 217.111C410.184 216.607 411.127 216.355 412.191 216.355C413.311 216.355 414.272 216.579 415.075 217.027C415.878 217.475 416.503 218.157 416.951 219.071C417.399 219.967 417.623 221.097 417.623 222.459V230.803H414.823V222.739C414.823 221.433 414.534 220.443 413.955 219.771C413.376 219.099 412.536 218.763 411.435 218.763C410.707 218.763 410.054 218.941 409.475 219.295C408.896 219.631 408.43 220.135 408.075 220.807C407.739 221.479 407.571 222.301 407.571 223.271V230.803H404.771Z" fill="black"/>
<path d="M427.477 231.139C426.133 231.139 424.947 230.822 423.921 230.187C422.894 229.534 422.091 228.657 421.513 227.555C420.953 226.435 420.673 225.166 420.673 223.747C420.673 222.31 420.953 221.041 421.513 219.939C422.091 218.838 422.894 217.97 423.921 217.335C424.966 216.682 426.161 216.355 427.505 216.355C428.606 216.355 429.577 216.579 430.417 217.027C431.257 217.457 431.91 218.073 432.377 218.875V210.643H435.177V230.803H432.657L432.377 228.619C432.097 229.049 431.733 229.459 431.285 229.851C430.837 230.225 430.295 230.533 429.661 230.775C429.026 231.018 428.298 231.139 427.477 231.139ZM427.925 228.703C428.802 228.703 429.577 228.498 430.249 228.087C430.921 227.677 431.434 227.098 431.789 226.351C432.162 225.605 432.349 224.737 432.349 223.747C432.349 222.758 432.162 221.899 431.789 221.171C431.434 220.425 430.921 219.846 430.249 219.435C429.577 219.006 428.802 218.791 427.925 218.791C427.085 218.791 426.329 219.006 425.657 219.435C424.985 219.846 424.462 220.425 424.089 221.171C423.715 221.899 423.529 222.758 423.529 223.747C423.529 224.737 423.715 225.605 424.089 226.351C424.462 227.098 424.985 227.677 425.657 228.087C426.329 228.498 427.085 228.703 427.925 228.703Z" fill="black"/>
<path d="M443.682 231.139C442.524 231.139 441.563 230.943 440.798 230.551C440.032 230.159 439.463 229.637 439.09 228.983C438.716 228.311 438.53 227.593 438.53 226.827C438.53 225.894 438.772 225.101 439.258 224.447C439.743 223.775 440.434 223.262 441.33 222.907C442.226 222.553 443.299 222.375 444.55 222.375H448.218C448.218 221.554 448.096 220.873 447.854 220.331C447.611 219.79 447.247 219.389 446.762 219.127C446.295 218.847 445.698 218.707 444.97 218.707C444.13 218.707 443.411 218.913 442.814 219.323C442.216 219.715 441.843 220.303 441.694 221.087H438.894C439.006 220.098 439.342 219.258 439.902 218.567C440.48 217.858 441.218 217.317 442.114 216.943C443.01 216.551 443.962 216.355 444.97 216.355C446.295 216.355 447.406 216.589 448.302 217.055C449.198 217.522 449.87 218.185 450.318 219.043C450.784 219.883 451.018 220.891 451.018 222.067V230.803H448.582L448.358 228.423C448.152 228.797 447.91 229.151 447.63 229.487C447.35 229.823 447.014 230.113 446.622 230.355C446.248 230.598 445.81 230.785 445.306 230.915C444.82 231.065 444.279 231.139 443.682 231.139ZM444.214 228.871C444.811 228.871 445.352 228.75 445.838 228.507C446.323 228.265 446.734 227.938 447.07 227.527C447.424 227.098 447.686 226.622 447.854 226.099C448.04 225.558 448.143 225.007 448.162 224.447V224.363H444.83C444.027 224.363 443.374 224.466 442.87 224.671C442.384 224.858 442.03 225.119 441.806 225.455C441.582 225.791 441.47 226.183 441.47 226.631C441.47 227.098 441.572 227.499 441.778 227.835C442.002 228.153 442.319 228.405 442.73 228.591C443.14 228.778 443.635 228.871 444.214 228.871Z" fill="black"/>
<path d="M0.0639648 216.691L9.82997 190.091H13.972L23.738 216.691H19.672L11.882 194.651L4.05396 216.691H0.0639648ZM4.47197 210.117L5.53596 207.077H18.038L19.102 210.117H4.47197Z" fill="black"/>
<path d="M27.5279 216.691V190.091H44.0579V193.207H31.3279V201.833H41.9679V204.873H31.3279V216.691H27.5279Z" fill="black"/>
<path d="M48.1236 216.691V190.091H57.1296C59.2322 190.091 60.9549 190.446 62.2976 191.155C63.6402 191.865 64.6282 192.815 65.2616 194.005C65.9202 195.171 66.2496 196.501 66.2496 197.995C66.2496 199.414 65.9202 200.731 65.2616 201.947C64.6282 203.138 63.6276 204.101 62.2596 204.835C60.8916 205.545 59.1436 205.899 57.0156 205.899H51.9236V216.691H48.1236ZM62.1076 216.691L56.3696 204.873H60.5496L66.5156 216.691H62.1076ZM51.9236 203.011H56.8636C58.7382 203.011 60.1189 202.555 61.0056 201.643C61.8922 200.706 62.3356 199.515 62.3356 198.071C62.3356 196.602 61.9049 195.437 61.0436 194.576C60.1822 193.714 58.7889 193.283 56.8636 193.283H51.9236V203.011Z" fill="black"/>
<path d="M71.1685 216.691V190.091H74.9685V216.691H71.1685Z" fill="black"/>
<path d="M92.1861 217.147C89.5767 217.147 87.3221 216.577 85.4221 215.438C83.5474 214.272 82.0907 212.663 81.0521 210.611C80.0387 208.534 79.5321 206.127 79.5321 203.391C79.5321 200.681 80.0387 198.287 81.0521 196.209C82.0907 194.132 83.5474 192.523 85.4221 191.383C87.3221 190.218 89.5767 189.635 92.1861 189.635C95.3021 189.635 97.8227 190.383 99.7481 191.877C101.699 193.372 102.94 195.475 103.472 198.186H99.2921C98.9121 196.615 98.1267 195.361 96.9361 194.423C95.7707 193.486 94.1874 193.017 92.1861 193.017C90.3874 193.017 88.8294 193.435 87.5121 194.271C86.1947 195.107 85.1814 196.298 84.4721 197.843C83.7627 199.389 83.4081 201.238 83.4081 203.391C83.4081 205.545 83.7627 207.407 84.4721 208.977C85.1814 210.523 86.1947 211.713 87.5121 212.549C88.8294 213.36 90.3874 213.766 92.1861 213.766C94.1874 213.766 95.7707 213.322 96.9361 212.436C98.1267 211.524 98.9121 210.295 99.2921 208.749H103.472C102.94 211.384 101.699 213.449 99.7481 214.943C97.8227 216.413 95.3021 217.147 92.1861 217.147Z" fill="black"/>
<path d="M105.789 216.691L115.555 190.091H119.697L129.463 216.691H125.397L117.607 194.651L109.779 216.691H105.789ZM110.197 210.117L111.261 207.077H123.763L124.827 210.117H110.197Z" fill="black"/>
<path d="M248.431 142.068C248.916 141.804 249.523 141.984 249.787 142.469C250.051 142.954 249.871 143.562 249.386 143.825L243.599 146.969L344.347 176.787L343.778 178.705L243.031 148.886L246.175 154.673C246.438 155.158 246.259 155.766 245.773 156.029C245.288 156.293 244.681 156.113 244.417 155.628L240.121 147.72C239.857 147.235 240.037 146.627 240.522 146.363L248.431 142.068Z" fill="black"/>
</svg>
