<svg width="195" height="92" viewBox="0 0 195 92" fill="none" xmlns="http://www.w3.org/2000/svg">
<path d="M30.1377 3.44002C32.0587 1.44051 31.6023 4.34551 32.8817 3.07507C32.8817 4.3456 31.6023 4.07372 32.8817 5.43621C32.4218 7.7961 30.4127 6.52526 33.0641 8.34063C33.8873 8.974 35.8964 8.61373 36.9942 9.33873C38.181 10.5207 39.1907 11.2464 41.1972 11.6888C44.9461 14.5053 41.3816 5.88273 47.8713 9.96634C49.2434 10.6033 50.5237 10.4187 52.1703 11.0557C54.729 11.7845 56.1936 9.8779 58.7525 11.1483C62.1347 10.1504 60.3988 19.7717 58.0216 12.7823C56.9249 12.9631 59.3929 15.2343 59.12 15.4158C59.9433 17.0507 60.581 19.0474 61.9531 20.3178C60.6741 20.9549 62.8696 22.2246 63.3258 22.6775C63.782 25.7669 65.9772 27.9433 67.164 31.1212C67.0715 29.7633 67.5265 31.665 67.8935 31.2139C68.0788 31.2139 68.1684 31.3057 68.261 31.4862C68.9916 32.0311 72.2837 34.2066 71.1874 35.1164C70.3677 35.5729 71.0987 35.3008 71.5549 35.4813C72.3746 37.2968 73.6576 36.2077 75.1189 36.2997C77.0367 36.2106 81.9713 33.3976 80.785 36.6633C81.0594 36.7552 80.8782 36.4828 81.1526 36.6633C78.7749 46.1968 61.7684 51.6446 67.984 61.458C68.8999 70.3548 67.1634 67.6299 61.037 73.1684C61.037 75.0759 62.4096 75.9859 61.4937 77.9819C62.7717 78.9797 57.3814 79.7057 58.3863 81.2485C57.6516 85.6971 52.4404 90.6906 48.6021 91.4161C46.4068 90.2376 43.8475 92.8669 42.2009 91.6884C41.1034 90.5986 41.6519 91.9604 41.2849 91.3234C41.741 90.1416 40.0062 89.8687 41.2849 89.1434C38.5444 83.697 37.4472 77.886 35.0702 72.4398C34.1675 71.4149 33.8921 70.2654 33.976 69.0917C33.9374 68.9928 33.9211 68.8928 33.9746 68.8898C33.9804 68.8927 33.986 68.8966 33.9913 68.8995C34.097 67.8827 34.4621 66.8518 34.9143 65.8707H62.8956V60.6466H43.1977C47.9125 57.4352 51.6925 54.4952 54.537 51.8255C57.4204 49.117 59.5048 46.5437 60.7906 44.1061C62.1155 41.6298 62.7787 39.1147 62.7787 36.561C62.7786 34.2009 62.2129 32.131 61.083 30.3512C59.9919 28.5327 58.4134 27.1395 56.3482 26.1722C54.2831 25.1664 51.8474 24.6627 49.0421 24.6627C46.2367 24.6627 43.723 25.205 41.5021 26.2884C39.3202 27.3331 37.5672 28.9007 36.2424 30.9899C34.9566 33.0405 34.2153 35.5171 34.0205 38.4189H40.2755C40.3924 35.7105 41.2493 33.6201 42.8469 32.1497C44.4444 30.641 46.4706 29.8869 48.9251 29.8867C51.263 29.8867 53.0757 30.5247 54.3616 31.8014C55.6864 33.0782 56.3482 34.7619 56.3482 36.8513C56.3482 38.7471 55.6083 40.8557 54.1277 43.1772C52.647 45.46 50.2701 48.0914 46.997 51.0707C44.0598 53.7094 40.2739 56.767 35.6424 60.2471C35.5801 59.9233 35.6464 59.6269 35.9863 59.3665C35.8045 55.5549 28.4909 50.1963 31.7805 49.0178C31.4171 49.0178 31.0499 48.021 31.5981 48.4731C31.7798 47.4754 30.6833 48.7457 31.7805 47.023C32.0549 46.1135 31.5946 45.0222 31.6872 44.5692C31.5065 44.3894 31.6873 44.3895 31.5062 44.3895C31.05 44.8425 30.686 43.8444 30.0445 43.4799C26.2029 45.8399 27.3002 41.3922 24.1931 41.5722C20.2622 41.6607 18.6186 44.1134 15.144 43.0237C10.9387 44.9312 7.55553 41.7529 4.81129 40.1179C5.17837 39.9374 5.45338 40.118 4.90456 39.8456C4.81549 39.3927 4.62964 39.3928 4.44793 39.0286C5.54524 38.9366 2.44041 36.3047 2.34574 35.8504C2.25294 36.122 1.88643 35.8502 1.97821 35.5781C1.79735 35.7607 1.88577 35.398 1.97821 35.397C2.25263 35.213 1.43014 35.5769 1.79723 35.3044C1.88872 35.2119 1.70507 34.9408 2.07149 34.9408C2.39772 34.6963 1.18082 35.4007 1.32389 35.0238C1.08092 35.2616 0.659597 34.8874 0.97306 34.5759C0.242679 34.9397 -0.123598 33.1251 0.517819 33.0331C-0.761605 31.2176 0.698636 30.7643 0.97306 28.7684C0.79121 20.7809 -0.213176 24.1387 3.62515 17.2378C12.4027 11.3349 6.18399 10.9738 11.4868 7.79597C12.9479 7.70746 12.9482 3.8052 14.0456 4.98278C14.5053 6.34527 16.5165 5.16355 16.791 5.70854C20.4478 4.89451 26.2068 2.44205 30.1377 3.44002Z" fill="black"/>
<path d="M77.952 65.0813C78.5934 61.7242 79.5053 65.4424 80.0542 67.0775C78.1332 68.1638 77.6772 78.9681 73.9244 79.8813C71.2765 81.3323 70.8163 76.9766 70.909 75.3415C73.6531 73.3457 70.546 68.9887 73.6529 68.4433C73.9841 68.0306 74.5468 67.9181 74.8516 68.1074C74.5958 67.7728 76.0058 66.9493 75.6632 67.6263C75.9377 67.6263 75.8488 66.8972 76.305 66.7167C76.1349 68.0777 76.7629 65.7799 76.9204 66.1485C76.6118 64.868 77.1366 65.8867 77.4035 65.4463C77.6776 65.1744 77.7703 65.3537 77.952 65.0813Z" fill="black"/>
<path d="M178.05 17.741H174.057L180.142 0.239274H184.944L191.02 17.741H187.026L182.612 4.23869H182.474L178.05 17.741ZM177.801 10.8616H187.233V13.7501H177.801V10.8616Z" fill="black"/>
<path d="M167.582 6.36659H163.813C163.744 5.88233 163.603 5.45219 163.391 5.07618C163.179 4.69447 162.906 4.36973 162.573 4.10196C162.241 3.8342 161.856 3.6291 161.42 3.48667C160.99 3.34424 160.522 3.27303 160.017 3.27303C159.105 3.27303 158.31 3.49806 157.633 3.94814C156.956 4.39252 156.431 5.042 156.058 5.89657C155.686 6.74545 155.499 7.77664 155.499 8.99014C155.499 10.2378 155.686 11.2861 156.058 12.135C156.437 12.9839 156.965 13.6248 157.642 14.0578C158.319 14.4908 159.102 14.7072 159.991 14.7072C160.491 14.7072 160.952 14.6417 161.377 14.5107C161.807 14.3797 162.189 14.1888 162.522 13.9381C162.854 13.6818 163.13 13.3713 163.348 13.0066C163.572 12.642 163.727 12.2261 163.813 11.759L167.582 11.7761C167.485 12.5794 167.241 13.3542 166.851 14.1005C166.466 14.8411 165.947 15.5049 165.293 16.0917C164.645 16.6728 163.87 17.1342 162.969 17.4761C162.074 17.8122 161.062 17.9803 159.931 17.9803C158.359 17.9803 156.954 17.627 155.714 16.9206C154.481 16.2141 153.505 15.1915 152.788 13.8527C152.077 12.5138 151.721 10.893 151.721 8.99014C151.721 7.08158 152.082 5.45789 152.805 4.11906C153.528 2.78022 154.509 1.76043 155.749 1.05967C156.988 0.353225 158.382 0 159.931 0C160.952 0 161.899 0.142429 162.771 0.427288C163.649 0.712146 164.427 1.12804 165.104 1.67497C165.781 2.2162 166.331 2.87992 166.756 3.66613C167.186 4.45234 167.462 5.35249 167.582 6.36659Z" fill="black"/>
<path d="M143.875 0.239274V17.741H140.149V0.239274H143.875Z" fill="black"/>
<path d="M119.155 17.741V0.239274H126.109C127.44 0.239274 128.576 0.475707 129.517 0.948573C130.464 1.41574 131.184 2.07946 131.677 2.93973C132.177 3.79431 132.426 4.79986 132.426 5.95639C132.426 7.11861 132.174 8.11846 131.669 8.95595C131.164 9.78773 130.432 10.4258 129.474 10.8702C128.522 11.3146 127.369 11.5368 126.015 11.5368H121.359V8.56284H125.412C126.124 8.56284 126.715 8.46599 127.185 8.27229C127.655 8.07858 128.005 7.78803 128.235 7.40062C128.47 7.01321 128.588 6.5318 128.588 5.95639C128.588 5.37527 128.47 4.88532 128.235 4.48652C128.005 4.08771 127.653 3.78576 127.176 3.58067C126.706 3.36987 126.112 3.26447 125.395 3.26447H122.882V17.741H119.155ZM128.674 9.77634L133.054 17.741H128.941L124.655 9.77634H128.674Z" fill="black"/>
<path d="M99.8896 17.741V0.239274H111.56V3.29011H103.616V7.46044H110.785V10.5113H103.616V17.741H99.8896Z" fill="black"/>
<path d="M79.7093 17.741H75.716L81.8006 0.239274H86.6028L92.6788 17.741H88.6855L84.2706 4.23869H84.1329L79.7093 17.741ZM79.4597 10.8616H88.8921V13.7501H79.4597V10.8616Z" fill="black"/>
<path d="M179.92 66.5091C177.193 66.5091 174.816 66.0255 172.789 65.0581C170.763 64.0908 169.146 62.7173 167.938 60.9374C166.769 59.1575 166.126 57.0875 166.009 54.7273H172.205C172.4 56.7006 173.179 58.287 174.543 59.4864C175.907 60.6859 177.719 61.2856 179.979 61.2856C181.732 61.2856 183.252 60.8987 184.538 60.1249C185.823 59.351 186.817 58.2483 187.519 56.8166C188.22 55.385 188.571 53.7212 188.571 51.8253C188.571 49.349 187.83 47.3563 186.35 45.8473C184.869 44.2996 182.921 43.5258 180.505 43.5258C178.829 43.5258 177.251 43.9514 175.77 44.8026C174.29 45.6152 173.101 46.6792 172.205 47.9948H166.477L169.925 25.3596H192.954V30.5831H174.952L173.082 42.307C174.212 41.0688 175.575 40.0821 177.173 39.347C178.771 38.6118 180.407 38.2442 182.083 38.2442C184.616 38.2442 186.856 38.8246 188.804 39.9854C190.753 41.1075 192.272 42.6745 193.363 44.6865C194.454 46.6599 195 49.0008 195 51.7092C195 54.7272 194.377 57.3583 193.13 59.6025C191.883 61.808 190.129 63.5104 187.869 64.7099C185.609 65.9094 182.96 66.5091 179.92 66.5091Z" fill="black"/>
<path d="M136.587 66.5671C133.898 66.5671 131.424 66.0255 129.163 64.9421C126.903 63.8587 125.092 62.2916 123.728 60.2409C122.403 58.1902 121.74 55.6752 121.74 52.6959H127.936C127.975 54.3984 128.365 55.9074 129.105 57.2229C129.845 58.4998 130.859 59.4864 132.144 60.1829C133.469 60.8793 134.95 61.2276 136.587 61.2276C139.08 61.2276 141.087 60.5892 142.607 59.3123C144.126 58.0355 144.886 56.391 144.886 54.379C144.886 52.7926 144.438 51.4964 143.542 50.4904C142.685 49.4457 141.516 48.6719 140.035 48.1689C138.593 47.6659 136.976 47.4144 135.184 47.4144H133.021V42.3069H135.359C136.957 42.3069 138.321 42.0168 139.451 41.4364C140.62 40.8173 141.516 40.0047 142.139 38.9987C142.763 37.9927 143.074 36.9093 143.074 35.7486C143.074 33.9687 142.451 32.5564 141.204 31.5117C139.996 30.4284 138.418 29.8867 136.47 29.8867C134.093 29.8867 132.164 30.5831 130.683 31.9761C129.202 33.3303 128.404 35.3036 128.287 37.896H122.091C122.208 34.9941 122.929 32.5564 124.254 30.5831C125.618 28.6098 127.371 27.1395 129.514 26.1722C131.657 25.1662 133.995 24.6632 136.528 24.6632C139.139 24.6632 141.399 25.1081 143.308 25.9981C145.256 26.8493 146.776 28.0681 147.867 29.6545C148.958 31.2022 149.504 33.0401 149.504 35.1682C149.504 36.5998 149.192 37.954 148.569 39.2309C147.945 40.5077 147.088 41.6105 145.997 42.5391C144.945 43.429 143.717 44.0675 142.315 44.4544C144.068 44.7252 145.607 45.325 146.932 46.2536C148.296 47.1435 149.367 48.3043 150.147 49.7359C150.926 51.1288 151.316 52.6959 151.316 54.437C151.316 56.7973 150.712 58.906 149.504 60.7633C148.296 62.5818 146.581 64.0134 144.36 65.0581C142.178 66.0641 139.587 66.5671 136.587 66.5671Z" fill="black"/>
<path d="M92.3762 66.5671C89.0641 66.5671 86.2391 65.7159 83.9011 64.0134C81.5631 62.2723 79.7707 59.8347 78.5238 56.7006C77.2769 53.5278 76.6534 49.8326 76.6534 45.6152C76.6534 41.3203 77.2769 37.6058 78.5238 34.4717C79.7707 31.3376 81.5631 28.9193 83.9011 27.2169C86.2391 25.5144 89.0641 24.6632 92.3762 24.6632C95.7273 24.6632 98.5523 25.5144 100.851 27.2169C103.189 28.9193 104.982 31.3376 106.229 34.4717C107.476 37.5671 108.099 41.2816 108.099 45.6152C108.099 49.8713 107.476 53.5665 106.229 56.7006C104.982 59.8347 103.189 62.2723 100.851 64.0134C98.5523 65.7159 95.7273 66.5671 92.3762 66.5671ZM92.3762 61.3437C95.4545 61.3437 97.773 59.9701 99.3316 57.2229C100.89 54.4371 101.67 50.5678 101.67 45.6152C101.67 40.5851 100.89 36.7159 99.3316 34.0074C97.773 31.2602 95.4545 29.8867 92.3762 29.8867C89.3368 29.8867 87.0379 31.2602 85.4792 34.0074C83.9206 36.7159 83.1413 40.5851 83.1413 45.6152C83.1413 50.5678 83.9206 54.4371 85.4792 57.2229C87.0379 59.9701 89.3368 61.3437 92.3762 61.3437Z" fill="black"/>
</svg>
